<svg width="56" height="56" viewBox="0 0 56 56" fill="none" xmlns="http://www.w3.org/2000/svg">
<path d="M14.9553 12.8102C14.363 12.218 13.4027 12.218 12.8104 12.8102C12.2181 13.4025 12.2181 14.3628 12.8104 14.9551L25.8552 27.9999L13.0448 40.8103C12.4525 41.4025 12.4526 42.3628 13.0448 42.9551C13.6371 43.5474 14.5974 43.5474 15.1897 42.9551L28.0001 30.1448L40.8104 42.9551C41.4027 43.5474 42.363 43.5474 42.9553 42.9551C43.5476 42.3628 43.5476 41.4025 42.9553 40.8103L30.145 27.9999L43.1897 14.9551C43.782 14.3628 43.782 13.4025 43.1897 12.8102C42.5974 12.218 41.6371 12.218 41.0448 12.8102L28.0001 25.855L14.9553 12.8102Z" fill="#AFA175"/>
</svg>
