<svg width="70" height="70" viewBox="0 0 70 70" fill="none" xmlns="http://www.w3.org/2000/svg">
<circle cx="35" cy="35" r="30" fill="#1B3543"/>
<path d="M35.5001 16C30.2041 16 29.5401 16.0225 27.4602 16.1173C25.3846 16.212 23.9671 16.5417 22.7267 17.0237C21.4444 17.522 20.357 18.1888 19.2729 19.2729C18.1888 20.3569 17.522 21.4445 17.0237 22.7268C16.5416 23.9671 16.2121 25.3846 16.1173 27.4602C16.0224 29.5401 16 30.2041 16 35.5001C16 40.7959 16.0224 41.4599 16.1173 43.5398C16.2121 45.6154 16.5416 47.0329 17.0237 48.2732C17.5221 49.5555 18.1889 50.643 19.2729 51.7271C20.357 52.8112 21.4444 53.478 22.7267 53.9763C23.9671 54.4583 25.3846 54.7879 27.4602 54.8827C29.5401 54.9775 30.2041 55 35.5001 55C40.7959 55 41.4599 54.9775 43.5398 54.8827C45.6154 54.788 47.0329 54.4583 48.2732 53.9763C49.5555 53.478 50.643 52.8112 51.7271 51.7271C52.8112 50.643 53.478 49.5555 53.9763 48.2732C54.4583 47.0329 54.788 45.6154 54.8827 43.5398C54.9775 41.4599 55 40.7959 55 35.5001C55 30.2041 54.9775 29.5401 54.8827 27.4602C54.788 25.3846 54.4583 23.9671 53.9763 22.7268C53.478 21.4445 52.8112 20.3569 51.7271 19.2729C50.643 18.1888 49.5555 17.522 48.2732 17.0237C47.0329 16.5417 45.6154 16.212 43.5398 16.1173C41.4599 16.0225 40.7959 16 35.5001 16ZM35.5001 19.5135C40.7067 19.5135 41.3235 19.5334 43.3797 19.6272C45.2809 19.7139 46.3134 20.0316 47.0005 20.2986C47.9108 20.6524 48.5604 21.0749 49.2427 21.7573C49.9251 22.4396 50.3476 23.0893 50.7014 23.9994C50.9684 24.6866 51.2861 25.7191 51.3728 27.6203C51.4666 29.6765 51.4865 30.2933 51.4865 35.5C51.4865 40.7067 51.4666 41.3235 51.3728 43.3797C51.2861 45.2809 50.9684 46.3134 50.7014 47.0005C50.3476 47.9108 49.9251 48.5604 49.2427 49.2427C48.5604 49.9251 47.9107 50.3476 47.0006 50.7014C46.3134 50.9684 45.2809 51.2861 43.3797 51.3728C41.3238 51.4666 40.7071 51.4865 35.5 51.4865C30.2929 51.4865 29.6763 51.4666 27.6203 51.3727C25.7191 51.2861 24.6866 50.9684 23.9995 50.7014C23.0892 50.3476 22.4396 49.9251 21.7573 49.2427C21.075 48.5604 20.6524 47.9107 20.2986 47.0006C20.0316 46.3134 19.7139 45.2809 19.6272 43.3797C19.5334 41.3235 19.5135 40.7067 19.5135 35.5C19.5135 30.2933 19.5334 29.6765 19.6272 27.6203C19.7139 25.7191 20.0316 24.6866 20.2986 23.9995C20.6524 23.0892 21.075 22.4396 21.7573 21.7573C22.4396 21.0749 23.0893 20.6524 23.9994 20.2986C24.6866 20.0316 25.7191 19.7139 27.6203 19.6272C29.6765 19.5334 30.2934 19.5135 35.5001 19.5135Z" fill="white"/>
<path d="M36.118 42.2955C32.4906 42.2955 29.5501 39.2272 29.5501 35.4423C29.5501 31.6572 32.4906 28.5889 36.118 28.5889C39.7452 28.5889 42.6857 31.6572 42.6857 35.4423C42.6857 39.2272 39.7452 42.2955 36.118 42.2955ZM36.118 24.8844C30.5299 24.8844 26 29.6112 26 35.4423C26 41.2731 30.5299 46 36.118 46C41.7059 46 46.2358 41.2731 46.2358 35.4423C46.2358 29.6112 41.7059 24.8844 36.118 24.8844ZM49 24.4672C49 25.8299 47.9414 26.9344 46.6356 26.9344C45.3298 26.9344 44.2712 25.8299 44.2712 24.4672C44.2712 23.1047 45.3298 22 46.6356 22C47.9414 22 49 23.1047 49 24.4672Z" fill="white"/>
</svg>
