<svg width="721" height="889" viewBox="0 0 721 889" fill="none" xmlns="http://www.w3.org/2000/svg">
<g filter="url(#filter0_f_371_1535)">
<circle cx="266.5" cy="444.5" r="324.5" fill="url(#paint0_radial_371_1535)"/>
</g>
<path d="M215.463 625.337C220.088 607.866 233.012 597.776 245.743 585.393C277.347 554.655 317.199 528.395 355.052 506.15C389.701 485.788 426.78 468.966 466.509 461.481C489.063 457.232 517.987 455.174 539.096 464.917C573.736 480.905 547.69 518.581 524.922 532.242C497.991 548.401 462.309 556.679 431.719 562.415C390.883 570.072 348.015 576.178 306.518 571.22C270.178 566.877 240.94 555.314 220.188 523.759C205.532 501.474 201.849 471.264 204.296 445.16C213.787 343.918 321.776 287.023 407.345 259.398C457.406 243.237 508.292 235.61 560.571 232.125C598.655 229.586 636.076 230.866 672.135 244.473C687.463 250.257 701.883 258.447 713.046 270.673C716.863 274.854 723.863 285.149 716.052 287.102" stroke="#4D8C98" stroke-opacity="0.6" stroke-width="2" stroke-linecap="round" stroke-dasharray="7 7"/>
<defs>
<filter id="filter0_f_371_1535" x="-178" y="0" width="889" height="889" filterUnits="userSpaceOnUse" color-interpolation-filters="sRGB">
<feFlood flood-opacity="0" result="BackgroundImageFix"/>
<feBlend mode="normal" in="SourceGraphic" in2="BackgroundImageFix" result="shape"/>
<feGaussianBlur stdDeviation="60" result="effect1_foregroundBlur_371_1535"/>
</filter>
<radialGradient id="paint0_radial_371_1535" cx="0" cy="0" r="1" gradientUnits="userSpaceOnUse" gradientTransform="translate(266.5 444.5) rotate(90) scale(324.5)">
<stop stop-color="#9AC8E3"/>
<stop offset="1" stop-color="#9AC8E3" stop-opacity="0"/>
</radialGradient>
</defs>
</svg>
