<svg width="70" height="70" viewBox="0 0 70 70" fill="none" xmlns="http://www.w3.org/2000/svg">
<circle cx="35" cy="35" r="30" fill="#1B3543"/>
<path d="M28 21C28 23.2091 26.209 25 24 25C21.7908 25 20 23.2091 20 21C20 18.7909 21.7908 17 24 17C26.209 17 28 18.7909 28 21Z" fill="white"/>
<path d="M20 28H27V49H20V28Z" fill="white"/>
<path d="M38.9621 27.4326H32V49H38.9621C38.9621 49 38.9621 42.2103 38.9621 37.9651C38.9621 35.4169 39.8132 32.8577 43.2089 32.8577C47.0465 32.8577 47.0235 36.1922 47.0055 38.7756C46.9821 42.1523 47.0379 45.5985 47.0379 49H54V37.6172C53.941 30.3491 52.0884 27 45.9937 27C42.3742 27 40.1306 28.6799 38.9621 30.1997V27.4326Z" fill="white"/>
</svg>
