<svg width="200" height="200" viewBox="0 0 200 200" fill="none" xmlns="http://www.w3.org/2000/svg">
<path d="M178.39 125.674L178.108 127.184C177.97 127.918 177.848 128.633 177.739 129.329C177.631 130.025 177.54 130.627 177.467 131.134L176.868 130.859C176.98 130.142 177 129.571 176.927 129.145C176.876 128.723 176.683 128.362 176.349 128.06C176.031 127.784 175.504 127.469 174.768 127.114L159.941 120.049C159.221 119.719 158.671 119.529 158.289 119.48C157.904 119.451 157.617 119.593 157.429 119.905C157.24 120.217 157.06 120.715 156.889 121.399L156.283 121.156C156.416 120.682 156.546 120.098 156.675 119.406C156.826 118.718 156.969 118.007 157.107 117.273C157.259 116.455 157.394 115.678 157.51 114.94C157.647 114.206 157.736 113.615 157.776 113.166L158.382 113.41C158.287 114.152 158.267 114.723 158.322 115.124C158.373 115.546 158.566 115.907 158.901 116.209C159.235 116.51 159.762 116.825 160.482 117.155L176.585 124.882L158.577 108.01L158.706 107.318L179.804 109.044L163.747 101.423C163.027 101.093 162.445 100.898 162.001 100.836C161.577 100.779 161.236 100.921 160.977 101.264C160.738 101.61 160.524 102.177 160.333 102.966L159.733 102.692C159.797 102.465 159.865 102.163 159.935 101.785C160.023 101.433 160.104 101.057 160.178 100.659C160.274 100.264 160.355 99.8888 160.421 99.5323C160.519 99.0081 160.609 98.4714 160.69 97.9222C160.791 97.377 160.855 96.9222 160.879 96.5579L161.479 96.8326C161.384 97.5744 161.383 98.1602 161.476 98.59C161.591 99.0236 161.836 99.395 162.212 99.704C162.606 100.038 163.162 100.37 163.882 100.699L178.406 107.643C179.142 107.998 179.693 108.187 180.057 108.212C180.443 108.24 180.729 108.099 180.918 107.787C181.124 107.499 181.303 107.001 181.458 106.292L182.057 106.567C181.974 106.899 181.876 107.304 181.765 107.782C181.65 108.281 181.542 108.804 181.44 109.349C181.35 109.831 181.268 110.326 181.195 110.833C181.122 111.34 181.063 111.774 181.017 112.135L162.04 110.382L178.39 125.674Z" fill="#AFA175"/>
<path d="M161.228 126.237C161.052 127.487 160.919 128.626 160.83 129.656C160.75 130.715 160.78 131.602 160.92 132.318C161.127 133.282 161.52 134.161 162.099 134.955C162.678 135.749 163.435 136.381 164.368 136.851C164.92 137.13 165.292 137.269 165.483 137.27C165.674 137.271 165.807 137.195 165.884 137.042C166.125 136.566 166.174 135.946 166.034 135.183C165.894 134.419 165.586 133.583 165.113 132.676C164.658 131.777 164.079 130.864 163.376 129.937C162.664 129.028 161.841 128.171 160.909 127.367C159.996 126.572 159.016 125.91 157.968 125.382C156.996 124.892 156.2 124.718 155.58 124.859C154.978 125.01 154.528 125.38 154.23 125.971C153.884 126.656 153.729 127.486 153.763 128.459C153.798 129.432 154.166 130.549 154.868 131.811L154.409 132.153C153.963 131.474 153.593 130.69 153.301 129.802C153.008 128.914 152.859 128.003 152.852 127.068C152.856 126.161 153.064 125.299 153.477 124.48C153.861 123.718 154.35 123.128 154.943 122.71C155.536 122.293 156.205 122.08 156.949 122.073C157.712 122.076 158.532 122.298 159.408 122.74C160.228 123.153 161.065 123.766 161.921 124.58C162.796 125.403 163.599 126.346 164.33 127.407C165.07 128.497 165.672 129.649 166.135 130.862C166.598 132.075 166.847 133.287 166.881 134.499C166.915 135.71 166.658 136.859 166.11 137.945C165.812 138.535 165.401 138.949 164.875 139.185C164.359 139.451 163.786 139.425 163.158 139.108C162.396 138.724 161.797 138.135 161.361 137.342C160.934 136.577 160.632 135.684 160.454 134.663C160.286 133.67 160.208 132.64 160.222 131.571C160.235 130.503 160.296 129.483 160.404 128.51C160.513 127.537 160.63 126.689 160.757 125.964L161.228 126.237Z" fill="#AFA175"/>
<path d="M155.484 139.766L150.026 146.464L149.529 146.06L154.987 139.362L155.484 139.766ZM149.208 133.335L150.966 131.176L159.185 142.822C159.31 143.006 159.468 143.218 159.66 143.456C159.867 143.707 160.089 143.874 160.325 143.956C160.564 144.068 160.791 143.992 161.007 143.727C161.303 143.364 161.382 142.878 161.245 142.27C161.107 141.663 160.709 140.817 160.053 139.731L159.397 138.661L159.781 138.19L161.087 140.285C161.58 141.099 161.873 141.82 161.968 142.447C162.049 143.09 162.007 143.648 161.843 144.12C161.682 144.621 161.467 145.037 161.197 145.368C160.793 145.864 160.394 146.117 160.001 146.127C159.61 146.167 159.235 146.054 158.874 145.787C158.5 145.538 158.139 145.203 157.793 144.783C157.45 144.394 157.137 144.001 156.854 143.606L149.208 133.335ZM145.414 142.296C145.062 141.816 144.737 141.455 144.439 141.213C144.144 141 143.862 141.059 143.593 141.39C143.296 141.754 143.217 142.24 143.355 142.847C143.496 143.485 143.893 144.331 144.547 145.386L145.202 146.456L144.818 146.928L143.512 144.832C143.006 144.035 142.712 143.315 142.631 142.671C142.537 142.044 142.579 141.486 142.756 140.998C142.904 140.513 143.119 140.097 143.402 139.75C143.618 139.485 143.878 139.284 144.182 139.147C144.487 139.01 144.794 138.971 145.103 139.03C145.492 139.127 145.888 139.367 146.291 139.75C146.681 140.15 147.166 140.737 147.745 141.512L155.392 151.783C155.071 152.21 154.781 152.634 154.521 153.055C154.247 153.492 154.04 153.915 153.9 154.323L145.414 142.296Z" fill="#AFA175"/>
<path d="M143.987 152.459L139.126 155.781L138.764 155.253L143.626 151.931L143.987 152.459ZM140.057 144.331L142.355 142.76L146.538 156.53C146.588 156.754 146.671 157.007 146.786 157.29C146.914 157.59 147.071 157.819 147.256 157.977C147.453 158.152 147.693 158.143 147.975 157.951C148.362 157.686 148.585 157.237 148.643 156.603C148.7 155.969 148.577 155.033 148.272 153.794L147.974 152.564L148.476 152.221L149.081 154.636C149.305 155.569 149.365 156.355 149.26 156.995C149.137 157.647 148.921 158.182 148.613 158.6C148.316 159.035 147.991 159.373 147.639 159.614C147.111 159.975 146.657 160.105 146.277 160.003C145.909 159.918 145.59 159.697 145.319 159.339C145.049 158.981 144.816 158.546 144.62 158.034C144.437 157.539 144.266 157.062 144.106 156.602L140.057 144.331ZM137.37 165.856C137.934 165.471 138.324 164.869 138.539 164.05C138.749 163.261 138.809 162.328 138.719 161.253C138.624 160.207 138.419 159.094 138.103 157.914C137.77 156.747 137.342 155.592 136.82 154.45C136.297 153.308 135.717 152.271 135.079 151.338C134.537 150.545 134.016 150.048 133.517 149.847C133 149.658 132.495 149.732 132.002 150.069C131.438 150.454 131.051 151.041 130.841 151.83C130.626 152.649 130.557 153.588 130.635 154.646C130.724 155.722 130.936 156.843 131.269 158.011C131.602 159.179 132.024 160.324 132.534 161.449C133.056 162.59 133.643 163.637 134.293 164.588C134.847 165.398 135.368 165.894 135.855 166.078C136.355 166.279 136.86 166.205 137.37 165.856ZM138.254 151.106C138.784 151.88 139.256 152.798 139.671 153.858C140.086 154.918 140.389 156.042 140.581 157.229C140.772 158.416 140.821 159.584 140.728 160.732C140.617 161.893 140.308 162.971 139.798 163.965C139.301 164.976 138.56 165.819 137.573 166.493C136.481 167.239 135.374 167.492 134.253 167.25C133.126 167.039 132.081 166.228 131.118 164.82C130.588 164.045 130.116 163.127 129.701 162.067C129.286 161.007 128.983 159.883 128.791 158.696C128.6 157.509 128.56 156.336 128.67 155.175C128.763 154.026 129.058 152.946 129.556 151.934C130.065 150.94 130.812 150.106 131.799 149.432C132.891 148.686 134.006 148.427 135.145 148.657C136.267 148.898 137.303 149.714 138.254 151.106Z" fill="#AFA175"/>
<path d="M114.9 174.326C114.649 175.61 114.423 176.669 114.221 177.504C114.025 178.359 113.952 179.088 114.003 179.689C114.001 180.346 114.123 180.778 114.367 180.984C114.591 181.195 114.849 181.267 115.14 181.2C115.41 181.138 115.672 180.946 115.926 180.625C116.16 180.308 116.277 179.821 116.279 179.164C116.228 178.563 116.091 177.872 115.867 177.092C115.622 176.316 115.331 175.387 114.994 174.305L114.9 174.326ZM114.939 174.35C115.837 175.019 116.559 175.586 117.105 176.051C117.655 176.537 118.202 176.871 118.748 177.052C119.277 177.258 119.709 177.279 120.043 177.114C120.377 176.95 120.601 176.734 120.714 176.467C120.865 176.169 120.889 175.846 120.786 175.498C120.689 175.17 120.365 174.905 119.815 174.704C119.337 174.529 118.689 174.427 117.872 174.396C117.06 174.387 116.117 174.33 115.042 174.228L114.939 174.35ZM114.97 174.343C116.12 173.728 117.079 173.233 117.846 172.859C118.593 172.49 119.234 172.09 119.77 171.66C120.275 171.193 120.583 170.772 120.693 170.396C120.788 170.046 120.767 169.766 120.631 169.557C120.47 169.331 120.221 169.203 119.885 169.171C119.554 169.159 119.103 169.384 118.53 169.844C118.057 170.26 117.546 170.848 117 171.609C116.432 172.375 115.758 173.253 114.98 174.242L114.97 174.343ZM114.963 174.312C115.256 173.018 115.503 171.954 115.704 171.12C115.906 170.285 115.989 169.554 115.954 168.927C115.951 168.25 115.837 167.805 115.614 167.594C115.374 167.408 115.119 167.347 114.848 167.409C114.557 167.476 114.285 167.67 114.03 167.992C113.776 168.313 113.648 168.802 113.647 169.459C113.698 170.061 113.845 170.749 114.09 171.525C114.314 172.305 114.574 173.241 114.869 174.333L114.963 174.312ZM109.242 172.149C109.092 172.447 109.066 172.759 109.163 173.087C109.266 173.436 109.592 173.711 110.142 173.912C110.625 174.108 111.272 174.21 112.085 174.22C112.897 174.23 113.84 174.286 114.915 174.388L115.049 174.259C114.13 173.595 113.395 173.02 112.845 172.534C112.279 172.073 111.734 171.75 111.209 171.565C110.68 171.358 110.248 171.337 109.914 171.502C109.58 171.667 109.356 171.882 109.242 172.149ZM109.326 179.059C109.466 179.29 109.713 179.408 110.064 179.414C110.4 179.446 110.854 179.232 111.427 178.772C111.9 178.356 112.41 177.768 112.957 177.007C113.509 176.267 114.182 175.389 114.977 174.374L115.018 174.266C113.852 174.907 112.894 175.402 112.142 175.75C111.374 176.124 110.723 176.526 110.187 176.956C109.656 177.407 109.346 177.818 109.256 178.189C109.146 178.564 109.169 178.855 109.326 179.059Z" fill="#AFA175"/>
<path d="M74.9176 178.552L73.4056 178.281C72.6706 178.15 71.9547 178.033 71.2579 177.93C70.5612 177.827 69.9589 177.741 69.4511 177.672L69.7214 177.07C70.4391 177.177 71.0107 177.192 71.436 177.117C71.8575 177.062 72.2176 176.866 72.5163 176.53C72.7901 176.21 73.1016 175.681 73.4506 174.941L80.4043 160.061C80.7285 159.339 80.914 158.787 80.9606 158.405C80.9862 158.019 80.8423 157.734 80.5289 157.548C80.2154 157.361 79.7159 157.185 79.0305 157.02L79.2692 156.412C79.7447 156.54 80.3289 156.667 81.0219 156.791C81.7112 156.935 82.4233 157.074 83.1583 157.205C83.9773 157.351 84.7562 157.48 85.495 157.59C86.23 157.722 86.8217 157.806 87.2703 157.843L87.0315 158.45C86.289 158.361 85.7175 158.345 85.3169 158.404C84.8954 158.458 84.5353 158.654 84.2367 158.991C83.938 159.327 83.6266 159.857 83.3023 160.579L75.6968 176.741L92.433 158.603L93.126 158.727L91.5594 179.837L99.0591 163.722C99.3834 162.999 99.5745 162.416 99.6324 161.971C99.6865 161.548 99.5415 161.207 99.1973 160.951C98.8494 160.715 98.2802 160.505 97.4897 160.32L97.7599 159.718C97.9871 159.781 98.2898 159.846 98.6678 159.913C99.021 159.998 99.3971 160.076 99.7961 160.148C100.191 160.24 100.568 160.318 100.925 160.382C101.45 160.476 101.987 160.561 102.537 160.638C103.083 160.735 103.538 160.795 103.902 160.817L103.632 161.419C102.89 161.329 102.304 161.333 101.875 161.43C101.442 161.547 101.073 161.795 100.766 162.174C100.435 162.57 100.108 163.129 99.7836 163.851L92.9493 178.428C92.6003 179.167 92.4149 179.719 92.393 180.084C92.3674 180.469 92.5113 180.755 92.8247 180.941C93.1134 181.144 93.6129 181.32 94.3232 181.469L94.0529 182.071C93.7207 181.99 93.3149 181.896 92.8357 181.788C92.3354 181.677 91.8123 181.573 91.2663 181.475C90.7833 181.389 90.2879 181.311 89.7801 181.242C89.2724 181.173 88.8381 181.117 88.4774 181.074L90.0871 162.085L74.9176 178.552Z" fill="#AFA175"/>
<path d="M74.2662 161.396C73.0156 161.229 71.8749 161.105 70.8441 161.023C69.7847 160.951 68.8975 160.988 68.1824 161.134C67.2195 161.348 66.3433 161.748 65.5536 162.333C64.7639 162.918 64.1371 163.679 63.6732 164.615C63.3986 165.17 63.2617 165.542 63.2625 165.733C63.2632 165.924 63.34 166.057 63.493 166.133C63.971 166.37 64.5914 166.415 65.3541 166.269C66.1169 166.122 66.9506 165.809 67.8552 165.328C68.7503 164.867 69.6592 164.281 70.582 163.572C71.4857 162.852 72.3365 162.024 73.1343 161.086C73.9227 160.167 74.5773 159.182 75.098 158.13C75.5808 157.155 75.7495 156.358 75.6039 155.738C75.449 155.138 75.0751 154.691 74.4824 154.398C73.7941 154.057 72.9634 153.908 71.9903 153.95C71.0172 153.992 69.9023 154.369 68.6456 155.08L68.3003 154.623C68.976 154.172 69.7569 153.797 70.6432 153.498C71.5294 153.198 72.44 153.042 73.375 153.029C74.2815 153.025 75.1457 153.227 75.9679 153.633C76.7327 154.012 77.3262 154.496 77.7483 155.086C78.1704 155.676 78.3877 156.342 78.4001 157.087C78.4031 157.85 78.1868 158.671 77.7513 159.55C77.3442 160.372 76.7368 161.214 75.9291 162.076C75.1119 162.957 74.1752 163.767 73.119 164.506C72.0341 165.254 70.8867 165.865 69.6768 166.337C68.4668 166.809 67.256 167.067 66.0444 167.11C64.8328 167.153 63.6821 166.905 62.5922 166.366C61.9995 166.072 61.5829 165.664 61.3423 165.14C61.0731 164.626 61.0948 164.053 61.4072 163.423C61.7859 162.658 62.3704 162.055 63.1606 161.613C63.9223 161.18 64.8132 160.871 65.8334 160.686C66.8251 160.51 67.8552 160.425 68.9239 160.43C69.9926 160.435 71.0138 160.489 71.9874 160.59C72.961 160.691 73.8107 160.802 74.5363 160.923L74.2662 161.396Z" fill="#AFA175"/>
<path d="M60.6293 155.722L53.91 150.291L54.3124 149.793L61.0318 155.224L60.6293 155.722ZM67.0403 149.424L69.2054 151.174L57.5858 159.434C57.4019 159.56 57.1911 159.718 56.9535 159.91C56.7025 160.119 56.5364 160.341 56.4552 160.577C56.344 160.817 56.4211 161.044 56.6865 161.258C57.0515 161.553 57.5376 161.631 58.1449 161.491C58.7521 161.35 59.5972 160.95 60.6803 160.289L61.7485 159.63L62.2213 160.013L60.1301 161.326C59.3177 161.821 58.5981 162.118 57.9711 162.214C57.3276 162.297 56.7696 162.258 56.2973 162.096C55.7949 161.936 55.3779 161.723 55.046 161.455C54.5483 161.052 54.2938 160.654 54.2825 160.261C54.2413 159.871 54.3532 159.496 54.6183 159.134C54.8669 158.759 55.2004 158.397 55.6187 158.05C56.0071 157.705 56.3986 157.391 56.7933 157.106L67.0403 149.424ZM58.0629 145.665C58.5413 145.311 58.9012 144.985 59.1427 144.686C59.3542 144.391 59.294 144.109 58.9622 143.841C58.5972 143.546 58.1111 143.468 57.5039 143.609C56.8666 143.752 56.0215 144.152 54.9684 144.81L53.9002 145.469L53.4274 145.086L55.5186 143.773C56.3144 143.264 57.034 142.968 57.6776 142.885C58.3046 142.788 58.8625 142.828 59.3514 143.003C59.8372 143.149 60.2543 143.363 60.6027 143.645C60.8681 143.859 61.07 144.118 61.2084 144.422C61.3468 144.726 61.3868 145.033 61.3285 145.342C61.2332 145.731 60.9945 146.128 60.6125 146.533C60.2139 146.924 59.6282 147.41 58.8554 147.993L48.6084 155.675C48.1802 155.356 47.7552 155.067 47.3334 154.809C46.8949 154.537 46.4711 154.331 46.062 154.193L58.0629 145.665Z" fill="#AFA175"/>
<path d="M47.9332 144.381L44.5741 139.545L45.0998 139.18L48.4589 144.016L47.9332 144.381ZM56.034 140.393L57.6223 142.68L43.8806 146.96C43.6566 147.012 43.4037 147.097 43.1219 147.214C42.8225 147.344 42.5947 147.502 42.4384 147.689C42.2646 147.887 42.2751 148.127 42.4698 148.407C42.7376 148.793 43.1886 149.012 43.8229 149.065C44.4572 149.118 45.3929 148.988 46.6298 148.675L47.8581 148.367L48.2049 148.867L45.793 149.489C44.8623 149.72 44.0763 149.785 43.4352 149.685C42.7819 149.567 42.2452 149.355 41.8251 149.049C41.3874 148.756 41.0469 148.434 40.8035 148.084C40.4384 147.558 40.3054 147.105 40.4047 146.724C40.4865 146.356 40.7053 146.035 41.0612 145.762C41.417 145.489 41.8505 145.253 42.3617 145.054C42.8553 144.867 43.3314 144.693 43.7899 144.53L56.034 140.393ZM34.4832 137.863C34.8727 138.424 35.4778 138.809 36.2986 139.018C37.0896 139.222 38.0228 139.275 39.0982 139.178C40.1439 139.076 41.2555 138.862 42.433 138.538C43.5985 138.197 44.7502 137.761 45.8884 137.23C47.0265 136.7 48.06 136.112 48.9888 135.468C49.7774 134.92 50.2705 134.396 50.4682 133.895C50.6536 133.377 50.576 132.873 50.2352 132.382C49.8457 131.821 49.2555 131.439 48.4644 131.235C47.6436 131.026 46.7043 130.964 45.6465 131.049C44.5711 131.146 43.4508 131.365 42.2854 131.707C41.12 132.048 39.9769 132.478 38.8563 132.996C37.7182 133.527 36.6759 134.12 35.7296 134.777C34.9235 135.337 34.4303 135.861 34.2502 136.35C34.0526 136.85 34.1303 137.355 34.4832 137.863ZM49.2445 138.64C48.4734 139.175 47.5592 139.654 46.5018 140.077C45.4445 140.499 44.3229 140.81 43.137 141.01C41.9512 141.21 40.7833 141.268 39.6335 141.183C38.4715 141.08 37.3915 140.778 36.3935 140.277C35.378 139.787 34.5295 139.051 33.8479 138.07C33.0934 136.984 32.8326 135.879 33.0658 134.757C33.2693 133.629 34.072 132.578 35.4739 131.605C36.245 131.07 37.1592 130.591 38.2166 130.168C39.2739 129.746 40.3955 129.435 41.5814 129.235C42.7672 129.035 43.9412 128.986 45.1032 129.089C46.253 129.173 47.3357 129.461 48.3512 129.95C49.3491 130.452 50.1889 131.194 50.8705 132.175C51.625 133.261 51.8918 134.374 51.6709 135.515C51.4377 136.637 50.6289 137.679 49.2445 138.64Z" fill="#AFA175"/>
<path d="M25.8768 115.63C24.5909 115.389 23.5299 115.17 22.6937 114.975C21.8368 114.785 21.1079 114.717 20.507 114.773C19.8498 114.776 19.419 114.901 19.2146 115.147C19.0052 115.372 18.9352 115.63 19.0045 115.921C19.0689 116.191 19.2627 116.451 19.586 116.703C19.9044 116.934 20.3922 117.048 21.0494 117.045C21.6502 116.989 22.34 116.847 23.1186 116.617C23.8923 116.367 24.8191 116.069 25.8991 115.724L25.8768 115.63ZM25.8531 115.669C25.1915 116.572 24.6301 117.298 24.1689 117.847C23.6869 118.401 23.3576 118.951 23.181 119.497C22.9787 120.028 22.9612 120.46 23.1284 120.793C23.2956 121.126 23.5131 121.348 23.781 121.46C24.0796 121.608 24.4027 121.629 24.7506 121.524C25.0776 121.425 25.3398 121.099 25.5372 120.547C25.7079 120.068 25.8053 119.42 25.8296 118.602C25.8331 117.79 25.882 116.846 25.9762 115.771L25.8531 115.669ZM25.8606 115.7C26.4848 116.845 26.9869 117.8 27.3668 118.565C27.7418 119.309 28.1464 119.947 28.5805 120.479C29.0513 120.981 29.4749 121.286 29.8515 121.393C30.2024 121.485 30.4821 121.462 30.6905 121.325C30.9148 121.162 31.0416 120.912 31.0711 120.576C31.0798 120.245 30.8517 119.795 30.3869 119.226C29.9676 118.756 29.3753 118.25 28.6101 117.709C27.8399 117.147 26.957 116.48 25.9614 115.709L25.8606 115.7ZM25.8917 115.693C27.1875 115.976 28.2535 116.215 29.0897 116.41C29.9259 116.605 30.6572 116.683 31.2838 116.643C31.9618 116.635 32.4054 116.518 32.6148 116.293C32.7985 116.052 32.8581 115.796 32.7938 115.526C32.7244 115.236 32.5281 114.965 32.2048 114.713C31.8815 114.461 31.3912 114.337 30.734 114.34C30.1332 114.396 29.4459 114.549 28.6722 114.799C27.8936 115.029 26.9593 115.295 25.8694 115.599L25.8917 115.693ZM28.0098 109.956C27.7113 109.808 27.3985 109.784 27.0714 109.884C26.7236 109.989 26.451 110.317 26.2536 110.869C26.0622 111.353 25.9647 112.001 25.9612 112.814C25.9577 113.626 25.9089 114.57 25.8146 115.645L25.9451 115.778C26.6018 114.854 27.1711 114.115 27.6531 113.562C28.1094 112.992 28.4283 112.445 28.6098 111.919C28.8121 111.388 28.8296 110.956 28.6624 110.623C28.4952 110.29 28.2777 110.068 28.0098 109.956ZM21.1003 110.091C20.8711 110.234 20.7546 110.481 20.7509 110.833C20.7214 111.169 20.9391 111.621 21.4039 112.19C21.8232 112.66 22.4155 113.166 23.1807 113.707C23.9252 114.254 24.8081 114.92 25.8294 115.707L25.9377 115.747C25.2877 114.586 24.7856 113.632 24.4314 112.883C24.0515 112.118 23.6444 111.469 23.2103 110.937C22.7554 110.409 22.3421 110.102 21.9705 110.015C21.5939 109.908 21.3038 109.933 21.1003 110.091Z" fill="#AFA175"/>
<path d="M21.2908 75.6562L21.5498 74.1422C21.6756 73.4063 21.7874 72.6895 21.8851 71.992C21.9827 71.2945 22.0642 70.6916 22.1295 70.1833L22.7334 70.4489C22.6321 71.1674 22.6209 71.739 22.6998 72.1637C22.7576 72.5848 22.956 72.9434 23.2949 73.2394C23.6165 73.5107 24.1483 73.8181 24.8903 74.1613L39.8233 80.999C40.548 81.3177 41.1014 81.4989 41.4835 81.5425C41.8692 81.5652 42.1539 81.419 42.3376 81.1042C42.5213 80.7893 42.6935 80.2885 42.8543 79.6017L43.4636 79.8357C43.3388 80.3122 43.217 80.8974 43.0984 81.5913C42.9586 82.2816 42.8258 82.9948 42.7 83.7308C42.5597 84.5509 42.4371 85.3307 42.3323 86.0703C42.2064 86.8062 42.1267 87.3986 42.0933 87.8474L41.484 87.6134C41.5678 86.8702 41.579 86.2986 41.5176 85.8985C41.4597 85.4774 41.2613 85.1189 40.9224 84.8229C40.5834 84.5269 40.0516 84.2196 39.327 83.9009L23.1078 76.4213L41.3716 93.0157L41.2529 93.7096L20.1311 92.3069L36.3033 99.6811C37.028 99.9997 37.6129 100.186 38.0581 100.241C38.4823 100.292 38.8213 100.144 39.0753 99.7978C39.3083 99.448 39.5142 98.8772 39.6929 98.0853L40.2968 98.3509C40.2362 98.5786 40.1735 98.8817 40.1088 99.2602C40.0266 99.6141 39.9513 99.9908 39.883 100.39C39.7936 100.786 39.7184 101.163 39.6572 101.52C39.5673 102.046 39.4861 102.584 39.4136 103.134C39.3201 103.681 39.2638 104.137 39.2448 104.502L38.6409 104.236C38.7247 103.493 38.7167 102.907 38.6168 102.479C38.4959 102.047 38.2449 101.679 37.8639 101.376C37.4655 101.048 36.9039 100.725 36.1793 100.407L21.5509 93.6858C20.8088 93.3425 20.2555 93.1614 19.8908 93.1423C19.5051 93.1197 19.2204 93.2658 19.0366 93.5807C18.8355 93.871 18.6633 94.3718 18.52 95.0831L17.9161 94.8176C17.9947 94.4847 18.0858 94.0783 18.1896 93.5982C18.2969 93.0972 18.3973 92.5733 18.4909 92.0265C18.5736 91.5429 18.6476 91.0469 18.7129 90.5387C18.7782 90.0304 18.8309 89.5957 18.871 89.2347L37.8724 90.697L21.2908 75.6562Z" fill="#AFA175"/>
<path d="M38.4427 74.7999C38.6004 73.5483 38.7163 72.4069 38.7905 71.3757C38.8549 70.316 38.8114 69.4293 38.6602 68.7155C38.4395 67.7545 38.0336 66.8814 37.4427 66.0964C36.8517 65.3113 36.0861 64.6904 35.1458 64.2337C34.5893 63.9634 34.2156 63.8294 34.0248 63.8316C33.834 63.8337 33.7013 63.9116 33.6267 64.0651C33.3936 64.5448 33.3529 65.1653 33.5046 65.9268C33.6563 66.6883 33.9759 67.5194 34.4631 68.4201C34.9312 69.3116 35.5235 70.2159 36.24 71.1331C36.9658 72.0311 37.8008 72.8754 38.7448 73.6659C39.6697 74.4472 40.6598 75.0941 41.7153 75.6067C42.6939 76.0821 43.4925 76.2446 44.1111 76.0944C44.7104 75.9349 45.1547 75.5578 45.4437 74.963C45.7795 74.2722 45.9227 73.4406 45.8736 72.4681C45.8244 71.4955 45.4397 70.3837 44.7195 69.1327L45.1735 68.784C45.6296 69.4562 46.0105 70.2341 46.3163 71.1178C46.6221 72.0016 46.7851 72.9108 46.8052 73.8455C46.8154 74.7517 46.6201 75.6173 46.2191 76.4424C45.846 77.2099 45.3661 77.8068 44.7794 78.2333C44.1926 78.6598 43.5271 78.8821 42.783 78.9002C42.0198 78.9089 41.1968 78.6989 40.314 78.2702C39.4889 77.8694 38.6424 77.2685 37.7745 76.4675C36.8875 75.6572 36.0707 74.7269 35.3241 73.6765C34.5676 72.5976 33.9488 71.4551 33.4676 70.249C32.9864 69.0429 32.7198 67.8343 32.668 66.6233C32.6161 65.4123 32.856 64.2599 33.3875 63.1663C33.6766 62.5715 34.0822 62.1518 34.6042 61.9073C35.1164 61.6344 35.6892 61.6516 36.3224 61.9592C37.09 62.332 37.6977 62.9118 38.1455 63.6985C38.5835 64.4567 38.8989 65.3451 39.0917 66.3637C39.2746 67.3538 39.3674 68.3831 39.3699 69.4515C39.3724 70.52 39.3267 71.5413 39.2328 72.5155C39.1388 73.4897 39.0339 74.34 38.9181 75.0663L38.4427 74.7999Z" fill="#AFA175"/>
<path d="M44.0374 61.0843L49.4218 54.3273L49.9224 54.7259L44.538 61.483L44.0374 61.0843ZM50.3832 67.4468L48.6483 69.6241L40.3024 58.0691C40.1754 57.8862 40.0151 57.6767 39.8213 57.4405C39.6109 57.1911 39.3873 57.0267 39.1505 56.9473C38.9104 56.8379 38.6839 56.9166 38.4712 57.1836C38.1787 57.5506 38.1048 58.0371 38.2493 58.6431C38.3938 59.2491 38.8004 60.091 39.469 61.1689L40.136 62.2318L39.7571 62.7073L38.4283 60.6264C37.9268 59.818 37.6254 59.1008 37.5242 58.4747C37.4362 57.832 37.4717 57.2739 37.6307 56.8006C37.7863 56.2972 37.9971 55.8787 38.2629 55.5451C38.6618 55.0445 39.0578 54.7872 39.451 54.773C39.8408 54.7289 40.2175 54.838 40.5813 55.1004C40.9583 55.3462 41.3222 55.6768 41.6729 56.0925C42.0203 56.4782 42.3376 56.8673 42.625 57.2597L50.3832 67.4468ZM54.0786 58.4448C54.4362 58.9204 54.7651 59.2778 55.0655 59.517C55.3625 59.7262 55.6439 59.664 55.9098 59.3303C56.2023 58.9633 56.2763 58.4768 56.1318 57.8708C55.9839 57.2349 55.5773 56.3929 54.912 55.345L54.2451 54.2821L54.624 53.8066L55.9528 55.8874C56.4676 56.6792 56.7689 57.3964 56.8569 58.0392C56.9581 58.6652 56.9226 59.2233 56.7503 59.7133C56.6081 60.2 56.3973 60.6185 56.1181 60.9688C55.9054 61.2358 55.6476 61.4395 55.3446 61.5801C55.0417 61.7206 54.7352 61.7629 54.4252 61.7069C54.0351 61.6145 53.6364 61.3788 53.2291 60.9999C52.8351 60.6043 52.3441 60.0224 51.7561 59.2542L43.9978 49.0671C44.3135 48.6367 44.5992 48.2097 44.8549 47.7861C45.1239 47.3458 45.3263 46.9207 45.4621 46.5106L54.0786 58.4448Z" fill="#AFA175"/>
<path d="M55.1773 48.3874L59.9894 44.9945L60.3584 45.5175L55.5462 48.9104L55.1773 48.3874ZM59.2258 56.457L56.9505 58.0612L52.567 44.3547C52.5138 44.1312 52.4272 43.879 52.3074 43.5981C52.1752 43.2997 52.0153 43.0731 51.8277 42.9182C51.6278 42.7459 51.3884 42.7581 51.1095 42.9548C50.7259 43.2253 50.5099 43.6778 50.4615 44.3123C50.4131 44.9467 50.5502 45.8812 50.8727 47.1155L51.1892 48.3411L50.6923 48.6914L50.0517 46.2848C49.8141 45.356 49.7431 44.5708 49.8387 43.9291C49.9517 43.2752 50.1595 42.7371 50.4621 42.3149C50.7525 41.8753 51.072 41.5325 51.4207 41.2867C51.9438 40.9179 52.396 40.7817 52.7774 40.8783C53.1465 40.9574 53.4689 41.1738 53.7446 41.5276C54.0203 41.8813 54.2596 42.313 54.4624 42.8225C54.653 43.3147 54.8312 43.7893 54.9972 44.2466L59.2258 56.457ZM61.597 34.8947C61.0391 35.2881 60.6585 35.8958 60.4552 36.7178C60.257 37.5101 60.2106 38.4434 60.3158 39.5177C60.4262 40.5623 60.6478 41.6721 60.9807 42.8469C61.3309 44.0095 61.7756 45.1578 62.3145 46.2917C62.8535 47.4257 63.4489 48.4546 64.1007 49.3785C64.6541 50.1629 65.182 50.6521 65.6844 50.846C66.2042 51.0277 66.7082 50.9464 67.1964 50.6022C67.7543 50.2088 68.1323 49.616 68.3305 48.8237C68.5338 48.0017 68.589 47.0623 68.496 46.0054C68.3908 44.9311 68.163 43.8126 67.8127 42.65C67.4624 41.4875 67.024 40.3479 66.4973 39.2314C65.9583 38.0974 65.3568 37.0598 64.6927 36.1185C64.1269 35.3166 63.5991 34.8274 63.109 34.6509C62.6066 34.457 62.1026 34.5382 61.597 34.8947ZM60.9292 49.6569C60.388 48.8899 59.9023 47.9795 59.472 46.9255C59.0417 45.8716 58.7222 44.7526 58.5134 43.5685C58.3046 42.3845 58.2384 41.2174 58.3146 40.0673C58.4083 38.9049 58.7024 37.8231 59.197 36.8218C59.6793 35.8031 60.4086 34.9496 61.385 34.2611C62.466 33.499 63.5688 33.2304 64.6936 33.4554C65.8235 33.6506 66.8803 34.4455 67.8642 35.84C68.4054 36.607 68.8911 37.5175 69.3214 38.5714C69.7517 39.6254 70.0712 40.7444 70.28 41.9284C70.4888 43.1125 70.5463 44.2857 70.4526 45.4481C70.3763 46.5982 70.0971 47.6826 69.6148 48.7013C69.1203 49.7025 68.3848 50.5474 67.4084 51.2358C66.3274 51.998 65.2158 52.2727 64.0736 52.06C62.9489 51.8351 61.9007 51.034 60.9292 49.6569Z" fill="#AFA175"/>
<path d="M84.0792 26.0034C84.3157 24.7167 84.5299 23.655 84.722 22.8181C84.909 21.9605 84.9735 21.2314 84.9155 20.6308C84.9097 19.9737 84.7833 19.5434 84.5363 19.3398C84.31 19.1313 84.0518 19.0622 83.7616 19.1326C83.492 19.198 83.232 19.3928 82.9814 19.717C82.7515 20.0362 82.6395 20.5244 82.6453 21.1815C82.7033 21.7821 82.8486 22.4713 83.0813 23.249C83.3347 24.0217 83.6363 24.9474 83.9859 26.026L84.0792 26.0034ZM84.0405 25.9798C83.1344 25.3216 82.406 24.7629 81.8555 24.3037C81.3 23.8238 80.7486 23.4966 80.2013 23.322C79.6697 23.1216 79.2377 23.1057 78.9054 23.2741C78.5731 23.4425 78.3517 23.6609 78.2412 23.9291C78.0942 24.2282 78.0739 24.5514 78.1802 24.8989C78.2814 25.2255 78.6082 25.4865 79.1605 25.6818C79.6406 25.8507 80.2893 25.9458 81.1067 25.9671C81.9191 25.9676 82.8631 26.013 83.9388 26.1033L84.0405 25.9798ZM84.0094 25.9874C82.8667 26.6158 81.9138 27.1214 81.1505 27.5041C80.408 27.8818 79.7713 28.2886 79.2405 28.7247C78.7406 29.1972 78.4375 29.622 78.3314 29.9989C78.2411 30.3501 78.265 30.6297 78.4033 30.8376C78.5674 31.0613 78.8174 31.1872 79.1536 31.2154C79.4847 31.2229 79.9339 30.9932 80.5011 30.5263C80.9697 30.1053 81.4731 29.5113 82.0113 28.7441C82.5703 27.9719 83.2335 27.0866 84.001 26.0882L84.0094 25.9874ZM84.017 26.0185C83.739 27.3152 83.504 28.382 83.312 29.2189C83.12 30.0557 83.0451 30.7873 83.0874 31.4137C83.0982 32.0916 83.2168 32.5348 83.443 32.7433C83.685 32.9261 83.9407 32.9848 84.2102 32.9194C84.5005 32.849 84.7709 32.6517 85.0215 32.3275C85.2721 32.0033 85.3945 31.5126 85.3886 30.8555C85.3306 30.2549 85.175 29.5682 84.9215 28.7955C84.6889 28.0178 84.4184 27.0846 84.1103 25.9959L84.017 26.0185ZM89.7617 28.1154C89.9086 27.8163 89.9315 27.5034 89.8302 27.1768C89.7239 26.8294 89.3946 26.558 88.8423 26.3627C88.3572 26.173 87.7085 26.0779 86.8961 26.0774C86.0837 26.0769 85.1397 26.0315 84.0641 25.9412L83.9312 26.0722C84.8581 26.7255 85.5994 27.292 86.1549 27.7719C86.7261 28.2261 87.275 28.5429 87.8016 28.7225C88.3332 28.9229 88.7651 28.9388 89.0975 28.7704C89.4298 28.602 89.6512 28.3836 89.7617 28.1154ZM89.5996 21.2069C89.4562 20.9782 89.2087 20.8627 88.8568 20.8602C88.5207 20.832 88.069 21.0513 87.5018 21.5182C87.0332 21.9392 86.5298 22.5332 85.9916 23.3004C85.4483 24.0468 84.7851 24.9321 84.0019 25.9563L83.9623 26.0647C85.1207 25.4105 86.0737 24.9049 86.8213 24.548C87.5845 24.1653 88.2315 23.7559 88.7623 23.3198C89.2881 22.863 89.5936 22.4486 89.679 22.0767C89.785 21.6997 89.7586 21.4098 89.5996 21.2069Z" fill="#AFA175"/>
<path d="M123.667 21.1262L125.183 21.3734C125.92 21.4936 126.638 21.5998 127.336 21.692C128.034 21.7843 128.638 21.861 129.147 21.9224L128.886 22.5283C128.166 22.4326 127.595 22.4258 127.17 22.508C126.75 22.5691 126.393 22.7703 126.099 23.1115C125.83 23.4351 125.527 23.9692 125.189 24.7139L118.465 39.699C118.151 40.4261 117.974 40.9809 117.934 41.3633C117.914 41.7491 118.062 42.0327 118.378 42.2139C118.695 42.3952 119.197 42.5635 119.885 42.7189L119.655 43.33C119.178 43.2089 118.592 43.0917 117.897 42.9784C117.206 42.8441 116.491 42.7168 115.755 42.5967C114.933 42.4628 114.153 42.3463 113.412 42.2472C112.675 42.127 112.082 42.0519 111.633 42.022L111.863 41.4109C112.607 41.489 113.178 41.4957 113.578 41.4312C113.998 41.3701 114.356 41.1689 114.649 40.8277C114.942 40.4865 115.246 39.9523 115.559 39.2252L122.916 22.9491L106.46 41.3405L105.765 41.2272L107.008 20.0958L99.7558 36.3242C99.4426 37.0513 99.2605 37.6376 99.2094 38.0832C99.1618 38.5078 99.312 38.8457 99.6601 39.097C100.012 39.3272 100.584 39.5286 101.377 39.7012L101.116 40.3071C100.888 40.2483 100.584 40.1879 100.205 40.1262C99.8509 40.0467 99.4737 39.9744 99.0736 39.9092C98.677 39.8229 98.2997 39.7506 97.9418 39.6922C97.4154 39.6064 96.8768 39.5294 96.3259 39.4611C95.7785 39.3719 95.3223 39.3191 94.9575 39.3029L95.2185 38.697C95.9623 38.775 96.548 38.7624 96.9755 38.6592C97.4065 38.535 97.7721 38.2812 98.0724 37.8978C98.3972 37.4969 98.7162 36.9329 99.0294 36.2058L105.64 21.5262C105.977 20.7815 106.154 20.2268 106.17 19.862C106.19 19.4761 106.042 19.1926 105.726 19.0113C105.434 18.8124 104.932 18.6441 104.219 18.5063L104.48 17.9004C104.814 17.9764 105.221 18.0644 105.702 18.1644C106.204 18.2679 106.728 18.3642 107.276 18.4535C107.76 18.5324 108.257 18.6026 108.765 18.6639C109.274 18.7253 109.709 18.7746 110.07 18.8119L108.752 37.8235L123.667 21.1262Z" fill="#AFA175"/>
<path d="M124.785 38.2763C126.038 38.4244 127.181 38.5316 128.212 38.598C129.273 38.6543 130.159 38.6042 130.872 38.4476C131.832 38.2196 132.702 37.8072 133.483 37.2104C134.264 36.6137 134.879 35.8435 135.329 34.9C135.596 34.3416 135.727 33.967 135.723 33.7762C135.72 33.5854 135.641 33.4534 135.487 33.3799C135.005 33.1505 134.384 33.1145 133.624 33.272C132.863 33.4295 132.034 33.7552 131.137 34.2492C130.249 34.724 129.349 35.323 128.437 36.0463C127.544 36.7787 126.705 37.6199 125.922 38.5697C125.147 39.5003 124.507 40.4952 124.002 41.5542C123.534 42.5363 123.377 43.336 123.532 43.9532C123.696 44.5512 124.076 44.9925 124.673 45.277C125.366 45.6074 126.199 45.7443 127.171 45.6878C128.144 45.6313 129.253 45.2382 130.499 44.5086L130.851 44.96C130.182 45.421 129.407 45.8078 128.525 46.1202C127.643 46.4326 126.735 46.6024 125.801 46.6296C124.894 46.6468 124.027 46.458 123.199 46.0634C122.429 45.6962 121.828 45.221 121.397 44.6376C120.966 44.0541 120.739 43.3905 120.716 42.6468C120.701 41.8837 120.906 41.0593 121.328 40.1735C121.723 39.3455 122.318 38.4947 123.112 37.6209C123.916 36.728 124.841 35.9043 125.886 35.1498C126.96 34.3854 128.098 33.758 129.301 33.2678C130.504 32.7775 131.71 32.5019 132.921 32.4409C134.132 32.3798 135.286 32.6109 136.384 33.134C136.981 33.4185 137.404 33.8208 137.652 34.3409C137.929 34.8509 137.916 35.4236 137.613 36.0591C137.245 36.8293 136.67 37.4413 135.886 37.895C135.131 38.3386 134.245 38.6606 133.228 38.8611C132.239 39.0516 131.21 39.1521 130.141 39.1627C129.073 39.1734 128.051 39.1354 127.076 39.0489C126.101 38.9623 125.249 38.8639 124.522 38.7536L124.785 38.2763Z" fill="#AFA175"/>
<path d="M138.584 43.776L145.382 49.1089L144.986 49.6123L138.189 44.2795L138.584 43.776ZM132.265 50.1666L130.075 48.4483L141.573 40.0202C141.755 39.8919 141.963 39.73 142.198 39.5346C142.446 39.3224 142.609 39.0976 142.687 38.8604C142.794 38.6195 142.714 38.3937 142.445 38.1831C142.076 37.8934 141.589 37.823 140.984 37.9719C140.379 38.1209 139.54 38.5335 138.466 39.2099L137.408 39.8844L136.929 39.5092L139.001 38.1655C139.806 37.6582 140.522 37.3517 141.147 37.2458C141.789 37.1532 142.348 37.1846 142.822 37.34C143.327 37.4919 143.747 37.6994 144.083 37.9628C144.586 38.3578 144.847 38.7518 144.864 39.1447C144.911 39.5341 144.804 39.9115 144.544 40.2771C144.301 40.6558 143.973 41.022 143.56 41.3757C143.177 41.7257 142.79 42.0458 142.399 42.336L132.265 50.1666ZM141.296 53.7945C140.823 54.1554 140.468 54.4869 140.231 54.789C140.024 55.0874 140.088 55.3683 140.424 55.6316C140.793 55.9213 141.28 55.9917 141.885 55.8428C142.52 55.6902 143.36 55.2776 144.403 54.6048L145.462 53.9303L145.94 54.3055L143.868 55.6492C143.08 56.1697 142.365 56.4762 141.722 56.5689C141.097 56.6747 140.538 56.6433 140.047 56.4747C139.559 56.336 139.139 56.1284 138.786 55.8519C138.518 55.6412 138.312 55.385 138.169 55.0832C138.027 54.7814 137.982 54.4753 138.036 54.165C138.126 53.7744 138.358 53.3741 138.734 52.9641C139.127 52.5673 139.706 52.0722 140.47 51.4787L150.604 43.6481C151.037 43.9605 151.466 44.2429 151.892 44.4954C152.334 44.7611 152.761 44.9603 153.172 45.093L141.296 53.7945Z" fill="#AFA175"/>
<path d="M151.395 54.8426L154.825 59.6288L154.304 60.0014L150.875 55.2152L151.395 54.8426ZM143.354 58.948L141.732 56.685L155.41 52.2041C155.633 52.1493 155.884 52.0609 156.165 51.9391C156.462 51.8048 156.687 51.6433 156.841 51.4547C157.012 51.2536 156.998 51.0143 156.799 50.7369C156.526 50.3554 156.072 50.1427 155.436 50.0989C154.801 50.0551 153.868 50.1989 152.636 50.5302L151.412 50.8554L151.058 50.3612L153.46 49.7035C154.388 49.4593 155.173 49.3826 155.815 49.4736C156.47 49.5818 157.01 49.7857 157.434 50.0852C157.876 50.3722 158.221 50.6892 158.47 51.036C158.843 51.5562 158.982 52.0073 158.889 52.3893C158.812 52.7589 158.598 53.0827 158.246 53.3609C157.894 53.6391 157.464 53.8814 156.956 54.0878C156.465 54.2819 155.992 54.4635 155.536 54.6327L143.354 58.948ZM164.939 61.163C164.541 60.6081 163.931 60.232 163.107 60.0347C162.313 59.8423 161.379 59.8026 160.305 59.9155C159.261 60.0334 158.153 60.263 156.98 60.6042C155.82 60.9627 154.675 61.4155 153.544 61.9625C152.414 62.5094 151.389 63.112 150.47 63.7703C149.689 64.3292 149.204 64.8605 149.014 65.3641C148.836 65.885 148.921 66.3883 149.269 66.8738C149.666 67.4287 150.262 67.8024 151.056 67.9948C151.88 68.1921 152.82 68.2405 153.877 68.1399C154.95 68.027 156.067 67.7912 157.228 67.4327C158.388 67.0741 159.525 66.6276 160.638 66.093C161.768 65.546 162.801 64.9372 163.738 64.2665C164.536 63.6952 165.021 63.1639 165.194 62.6728C165.384 62.1691 165.299 61.6659 164.939 61.163ZM150.168 60.6018C150.931 60.0553 151.838 59.5632 152.889 59.1254C153.94 58.6876 155.057 58.3601 156.24 58.1429C157.423 57.9257 158.59 57.851 159.741 57.919C160.904 58.0042 161.988 58.2905 162.994 58.7777C164.016 59.2524 164.875 59.9754 165.571 60.9465C166.342 62.0216 166.618 63.1222 166.402 64.2482C166.215 65.3791 165.428 66.4414 164.04 67.435C163.277 67.9815 162.37 68.4737 161.319 68.9114C160.268 69.3492 159.151 69.6767 157.968 69.8939C156.785 70.1112 155.612 70.1772 154.449 70.0919C153.298 70.0239 152.211 69.7526 151.188 69.2778C150.183 68.7906 149.333 68.0615 148.637 67.0904C147.866 66.0152 147.583 64.906 147.788 63.7626C148.004 62.6366 148.798 61.583 150.168 60.6018Z" fill="#AFA175"/>
<path d="M173.992 83.5531C175.28 83.78 176.344 83.9863 177.182 84.1721C178.041 84.3526 178.771 84.4117 179.371 84.3492C180.028 84.3385 180.458 84.2089 180.659 83.9604C180.866 83.7326 180.933 83.4739 180.86 83.1842C180.793 82.9152 180.596 82.6566 180.27 82.4085C179.949 82.181 179.46 82.0727 178.803 82.0834C178.203 82.1459 177.515 82.2963 176.739 82.5348C175.968 82.794 175.044 83.1024 173.968 83.46L173.992 83.5531ZM174.015 83.5143C174.666 82.6033 175.219 81.8709 175.674 81.317C176.15 80.7579 176.473 80.2041 176.643 79.6556C176.84 79.1225 176.852 78.6905 176.681 78.3595C176.51 78.0285 176.29 77.8087 176.021 77.7002C175.721 77.5555 175.397 77.5376 175.051 77.6465C174.725 77.7501 174.466 78.0788 174.275 78.6326C174.11 79.1138 174.02 79.7632 174.005 80.5807C174.011 81.393 173.973 82.3373 173.891 83.4135L174.015 83.5143ZM174.007 83.4833C173.37 82.3454 172.857 81.3963 172.468 80.636C172.085 79.8963 171.673 79.2628 171.233 78.7353C170.757 78.2389 170.329 77.9391 169.952 77.8358C169.6 77.7481 169.32 77.7741 169.113 77.9139C168.891 78.0796 168.767 78.3306 168.741 78.667C168.737 78.9981 168.97 79.4455 169.441 80.0092C169.866 80.4746 170.464 80.9735 171.235 81.5059C172.012 82.0591 172.902 82.7156 173.906 83.4756L174.007 83.4833ZM173.976 83.491C172.677 83.2228 171.609 82.9958 170.77 82.81C169.932 82.6243 169.2 82.5549 168.574 82.6018C167.896 82.6178 167.454 82.7396 167.247 82.9674C167.066 83.2107 167.009 83.4668 167.077 83.7358C167.149 84.0255 167.349 84.2944 167.675 84.5426C168.001 84.7907 168.493 84.9094 169.15 84.8987C169.75 84.8362 170.435 84.6754 171.206 84.4163C171.982 84.1778 172.913 83.9004 174 83.5842L173.976 83.491ZM171.924 89.2509C172.224 89.3955 172.537 89.416 172.863 89.3124C173.21 89.2035 173.478 88.8722 173.669 88.3185C173.855 87.832 173.945 87.1827 173.94 86.3704C173.934 85.5581 173.972 84.6138 174.054 83.5376L173.922 83.4057C173.276 84.3374 172.715 85.0828 172.239 85.6419C171.79 86.2164 171.477 86.7676 171.301 87.2955C171.105 87.8285 171.093 88.2606 171.264 88.5916C171.435 88.9226 171.655 89.1424 171.924 89.2509ZM178.831 89.0371C179.059 88.8921 179.172 88.6437 179.172 88.2919C179.198 87.9556 178.975 87.5056 178.504 86.9419C178.079 86.4765 177.481 85.9776 176.71 85.4451C175.959 84.9075 175.069 84.251 174.038 83.4755L173.93 83.4368C174.593 84.5901 175.106 85.5392 175.469 86.2841C175.857 87.0444 176.272 87.6883 176.712 88.2158C177.173 88.738 177.589 89.0405 177.962 89.123C178.34 89.2263 178.63 89.1976 178.831 89.0371Z" fill="#AFA175"/>
</svg>
