<svg width="577" height="1034" viewBox="0 0 577 1034" fill="none" xmlns="http://www.w3.org/2000/svg">
<rect width="320" height="922" transform="translate(129 112)" fill="url(#paint0_radial_416_1862)"/>
<g opacity="0.3">
<circle cx="288.5" cy="288.5" r="288.069" stroke="#4D8C98" stroke-opacity="0.7" stroke-width="0.861111" stroke-linecap="round" stroke-dasharray="12.92 12.92"/>
<path d="M513.569 288.5C513.569 412.803 413.025 513.569 289 513.569C164.975 513.569 64.4306 412.803 64.4306 288.5C64.4306 164.197 164.975 63.4306 289 63.4306C413.025 63.4306 513.569 164.197 513.569 288.5Z" stroke="#4D8C98" stroke-width="0.861111"/>
<path d="M405.569 288.5C405.569 353.157 353.378 405.569 289 405.569C224.622 405.569 172.431 353.157 172.431 288.5C172.431 223.843 224.622 171.431 289 171.431C353.378 171.431 405.569 223.843 405.569 288.5Z" stroke="#47B5CA" stroke-opacity="0.5" stroke-width="0.861111"/>
<path d="M454.711 278.65C454.828 280.635 454.909 282.629 454.956 284.632C454.718 284.637 454.53 284.834 454.534 285.071C454.558 286.211 454.569 287.354 454.569 288.5C454.569 289.646 454.558 290.789 454.534 291.929C454.53 292.166 454.718 292.363 454.956 292.368C454.909 294.371 454.828 296.365 454.711 298.35C454.474 298.336 454.27 298.516 454.255 298.753C454.115 301.034 453.928 303.303 453.696 305.558C453.672 305.795 453.844 306.006 454.08 306.031C453.869 308.025 453.623 310.008 453.342 311.98C453.107 311.946 452.889 312.109 452.855 312.345C452.526 314.608 452.152 316.856 451.732 319.088C451.688 319.322 451.842 319.547 452.075 319.591C451.7 321.558 451.29 323.513 450.846 325.454C450.615 325.401 450.384 325.545 450.33 325.777C449.815 328.002 449.255 330.21 448.65 332.4C448.587 332.629 448.721 332.866 448.95 332.929C448.413 334.856 447.841 336.769 447.237 338.667C447.01 338.595 446.768 338.719 446.695 338.946C445.997 341.118 445.254 343.271 444.469 345.404C444.387 345.627 444.501 345.874 444.723 345.956C444.027 347.832 443.297 349.692 442.535 351.535C442.316 351.444 442.064 351.548 441.972 351.767C441.095 353.874 440.175 355.959 439.213 358.021C439.113 358.236 439.206 358.492 439.421 358.593C438.571 360.403 437.689 362.195 436.776 363.968C436.565 363.859 436.305 363.942 436.196 364.153C435.147 366.178 434.057 368.178 432.927 370.154C432.809 370.36 432.88 370.623 433.086 370.741C432.09 372.473 431.062 374.186 430.005 375.878C429.804 375.752 429.538 375.812 429.412 376.014C428.199 377.944 426.947 379.847 425.657 381.723C425.523 381.919 425.572 382.187 425.768 382.321C424.631 383.965 423.466 385.587 422.272 387.186C422.082 387.044 421.813 387.083 421.67 387.273C420.302 389.096 418.897 390.89 417.457 392.654C417.306 392.838 417.333 393.109 417.517 393.26C416.25 394.803 414.955 396.324 413.633 397.821C413.455 397.663 413.183 397.68 413.025 397.857C411.513 399.561 409.965 401.234 408.384 402.874C408.219 403.045 408.224 403.317 408.395 403.482C407.005 404.916 405.59 406.325 404.15 407.708C403.985 407.537 403.713 407.531 403.541 407.695C401.894 409.268 400.215 410.808 398.504 412.313C398.326 412.47 398.308 412.742 398.465 412.921C396.962 414.236 395.436 415.524 393.886 416.785C393.737 416.6 393.466 416.572 393.281 416.721C391.511 418.154 389.711 419.551 387.881 420.911C387.691 421.053 387.651 421.322 387.792 421.513C386.188 422.7 384.561 423.858 382.912 424.988C382.778 424.792 382.511 424.741 382.314 424.875C380.434 426.157 378.525 427.401 376.589 428.606C376.388 428.731 376.326 428.997 376.451 429.198C374.755 430.249 373.038 431.269 371.302 432.259C371.185 432.053 370.922 431.98 370.716 432.098C368.736 433.219 366.731 434.302 364.702 435.344C364.491 435.452 364.407 435.712 364.516 435.923C362.739 436.829 360.944 437.705 359.131 438.549C359.031 438.333 358.775 438.239 358.559 438.339C356.495 439.293 354.407 440.207 352.297 441.077C352.077 441.168 351.973 441.42 352.063 441.639C350.217 442.396 348.355 443.12 346.477 443.811C346.395 443.588 346.148 443.473 345.925 443.554C343.79 444.334 341.635 445.07 339.461 445.763C339.234 445.835 339.109 446.077 339.181 446.304C337.281 446.903 335.367 447.47 333.439 448.003C333.376 447.774 333.139 447.639 332.91 447.702C330.719 448.301 328.51 448.857 326.283 449.367C326.052 449.421 325.907 449.651 325.96 449.883C324.017 450.323 322.062 450.73 320.094 451.101C320.05 450.868 319.826 450.714 319.592 450.757C317.359 451.173 315.11 451.545 312.847 451.87C312.612 451.904 312.448 452.122 312.482 452.357C310.509 452.635 308.525 452.879 306.531 453.088C306.506 452.852 306.295 452.68 306.059 452.704C303.804 452.934 301.535 453.119 299.253 453.258C299.016 453.273 298.836 453.476 298.85 453.713C296.865 453.829 294.871 453.91 292.868 453.956C292.863 453.718 292.666 453.53 292.429 453.535C291.289 453.558 290.146 453.569 289 453.569C287.854 453.569 286.711 453.558 285.571 453.535C285.333 453.53 285.137 453.718 285.132 453.956C283.129 453.91 281.135 453.829 279.15 453.713C279.164 453.476 278.984 453.273 278.747 453.258C276.465 453.119 274.196 452.934 271.941 452.704C271.705 452.68 271.493 452.852 271.469 453.088C269.475 452.879 267.491 452.635 265.518 452.357C265.552 452.122 265.388 451.904 265.153 451.87C262.89 451.545 260.641 451.173 258.408 450.757C258.174 450.714 257.949 450.868 257.906 451.101C255.938 450.73 253.982 450.323 252.04 449.883C252.093 449.651 251.948 449.421 251.716 449.367C249.49 448.857 247.281 448.301 245.09 447.702C244.861 447.639 244.624 447.774 244.561 448.003C242.633 447.47 240.719 446.903 238.819 446.304C238.891 446.077 238.766 445.835 238.539 445.763C236.365 445.07 234.21 444.334 232.075 443.554C231.852 443.473 231.605 443.588 231.523 443.811C229.645 443.12 227.783 442.395 225.937 441.639C226.027 441.42 225.923 441.168 225.703 441.077C223.593 440.207 221.505 439.293 219.441 438.339C219.225 438.239 218.969 438.333 218.869 438.549C217.056 437.705 215.261 436.829 213.484 435.923C213.593 435.712 213.509 435.452 213.298 435.344C211.269 434.302 209.264 433.219 207.284 432.098C207.078 431.98 206.815 432.053 206.698 432.259C204.962 431.269 203.245 430.249 201.549 429.198C201.674 428.997 201.612 428.731 201.411 428.606C199.475 427.401 197.566 426.157 195.686 424.875C195.489 424.741 195.222 424.792 195.088 424.988C193.439 423.858 191.812 422.7 190.208 421.513C190.349 421.322 190.309 421.053 190.119 420.911C188.289 419.551 186.489 418.154 184.719 416.721C184.534 416.572 184.263 416.6 184.114 416.785C182.564 415.524 181.038 414.236 179.535 412.921C179.692 412.742 179.674 412.47 179.496 412.314C177.785 410.808 176.106 409.268 174.459 407.695C174.287 407.531 174.015 407.537 173.85 407.708C172.41 406.325 170.995 404.916 169.605 403.482C169.776 403.317 169.781 403.045 169.616 402.874C168.035 401.234 166.487 399.561 164.975 397.857C164.817 397.68 164.545 397.663 164.367 397.821C163.045 396.324 161.75 394.803 160.483 393.26C160.667 393.109 160.694 392.838 160.543 392.654C159.103 390.89 157.698 389.096 156.33 387.273C156.187 387.083 155.918 387.044 155.728 387.186C154.534 385.587 153.369 383.965 152.232 382.321C152.428 382.187 152.477 381.919 152.343 381.723C151.053 379.847 149.801 377.944 148.588 376.014C148.462 375.812 148.196 375.752 147.995 375.878C146.938 374.186 145.91 372.473 144.914 370.741C145.12 370.623 145.191 370.36 145.073 370.154C143.943 368.178 142.853 366.178 141.804 364.153C141.695 363.942 141.435 363.859 141.224 363.968C140.311 362.195 139.429 360.403 138.579 358.593C138.794 358.492 138.887 358.236 138.787 358.021C137.825 355.959 136.905 353.874 136.028 351.767C135.936 351.548 135.684 351.444 135.465 351.535C134.703 349.692 133.973 347.832 133.277 345.956C133.499 345.874 133.613 345.627 133.531 345.404C132.746 343.271 132.003 341.118 131.305 338.946C131.232 338.719 130.99 338.595 130.763 338.667C130.159 336.769 129.587 334.856 129.05 332.929C129.279 332.866 129.413 332.629 129.35 332.4C128.745 330.21 128.185 328.002 127.67 325.777C127.616 325.545 127.385 325.401 127.154 325.454C126.71 323.513 126.3 321.558 125.925 319.591C126.158 319.547 126.312 319.322 126.268 319.088C125.848 316.856 125.474 314.608 125.145 312.345C125.111 312.109 124.893 311.946 124.658 311.98C124.377 310.008 124.131 308.025 123.92 306.031C124.156 306.006 124.328 305.795 124.304 305.558C124.072 303.303 123.885 301.034 123.745 298.753C123.73 298.516 123.526 298.335 123.289 298.35C123.172 296.365 123.091 294.371 123.044 292.368C123.282 292.363 123.47 292.166 123.466 291.929C123.442 290.789 123.431 289.646 123.431 288.5C123.431 287.354 123.442 286.211 123.466 285.071C123.47 284.834 123.282 284.637 123.044 284.632C123.091 282.629 123.172 280.635 123.289 278.65C123.526 278.664 123.73 278.484 123.745 278.247C123.885 275.966 124.072 273.697 124.304 271.442C124.328 271.205 124.156 270.994 123.92 270.969C124.131 268.975 124.377 266.992 124.658 265.02C124.893 265.054 125.111 264.891 125.145 264.655C125.474 262.392 125.848 260.144 126.268 257.912C126.312 257.678 126.158 257.453 125.925 257.409C126.3 255.442 126.71 253.487 127.154 251.546C127.385 251.599 127.616 251.455 127.67 251.223C128.185 248.998 128.745 246.79 129.35 244.6C129.413 244.371 129.279 244.134 129.05 244.071C129.587 242.144 130.159 240.231 130.763 238.333C130.99 238.405 131.232 238.281 131.305 238.054C132.003 235.882 132.746 233.729 133.531 231.596C133.613 231.373 133.499 231.126 133.277 231.044C133.973 229.168 134.703 227.308 135.465 225.465C135.684 225.556 135.936 225.452 136.028 225.233C136.905 223.126 137.825 221.041 138.787 218.979C138.887 218.764 138.794 218.508 138.579 218.407C139.429 216.597 140.311 214.805 141.224 213.032C141.435 213.141 141.695 213.058 141.804 212.847C142.853 210.822 143.943 208.822 145.073 206.846C145.191 206.64 145.12 206.377 144.914 206.259C145.91 204.527 146.938 202.814 147.995 201.122C148.196 201.248 148.462 201.188 148.588 200.986C149.801 199.056 151.053 197.153 152.343 195.277C152.477 195.081 152.428 194.813 152.232 194.679C153.369 193.035 154.534 191.413 155.728 189.814C155.918 189.956 156.187 189.917 156.33 189.727C157.698 187.904 159.103 186.11 160.543 184.346C160.694 184.162 160.667 183.891 160.483 183.74C161.75 182.197 163.045 180.676 164.367 179.179C164.545 179.337 164.817 179.32 164.975 179.143C166.487 177.439 168.035 175.766 169.616 174.126C169.781 173.955 169.776 173.683 169.605 173.518C170.995 172.084 172.41 170.675 173.85 169.292C174.015 169.463 174.287 169.469 174.459 169.305C176.106 167.732 177.785 166.192 179.496 164.687C179.674 164.53 179.692 164.258 179.535 164.079C181.038 162.764 182.564 161.476 184.114 160.215C184.263 160.4 184.534 160.428 184.719 160.279C186.489 158.846 188.289 157.449 190.119 156.089C190.309 155.947 190.349 155.678 190.208 155.487C191.812 154.3 193.439 153.142 195.088 152.012C195.222 152.208 195.489 152.259 195.686 152.125C197.566 150.843 199.475 149.599 201.411 148.394C201.612 148.269 201.674 148.003 201.549 147.802C203.245 146.751 204.962 145.731 206.698 144.741C206.815 144.947 207.078 145.02 207.284 144.903C209.264 143.781 211.269 142.698 213.298 141.656C213.509 141.548 213.593 141.288 213.484 141.077C215.261 140.171 217.056 139.295 218.869 138.451C218.969 138.667 219.225 138.761 219.441 138.661C221.505 137.707 223.593 136.793 225.703 135.923C225.923 135.832 226.027 135.58 225.937 135.361C227.783 134.604 229.645 133.88 231.523 133.189C231.605 133.412 231.852 133.527 232.075 133.446C234.21 132.666 236.365 131.93 238.539 131.237C238.766 131.165 238.891 130.923 238.819 130.696C240.719 130.097 242.633 129.53 244.561 128.997C244.624 129.226 244.861 129.361 245.09 129.298C247.281 128.699 249.49 128.143 251.717 127.633C251.948 127.579 252.093 127.349 252.04 127.117C253.983 126.677 255.938 126.27 257.906 125.899C257.95 126.132 258.174 126.286 258.408 126.243C260.641 125.827 262.89 125.455 265.153 125.13C265.388 125.096 265.552 124.878 265.518 124.643C267.491 124.365 269.475 124.121 271.469 123.912C271.494 124.148 271.705 124.32 271.941 124.296C274.196 124.066 276.465 123.881 278.747 123.742C278.984 123.727 279.164 123.524 279.15 123.287C281.135 123.171 283.129 123.09 285.132 123.044C285.137 123.282 285.334 123.47 285.571 123.465C286.711 123.442 287.854 123.431 289 123.431C290.146 123.431 291.289 123.442 292.429 123.465C292.667 123.47 292.863 123.282 292.868 123.044C294.871 123.09 296.865 123.171 298.85 123.287C298.836 123.524 299.016 123.727 299.253 123.742C301.535 123.881 303.804 124.066 306.059 124.296C306.295 124.32 306.507 124.148 306.531 123.912C308.525 124.121 310.509 124.365 312.482 124.643C312.448 124.878 312.612 125.096 312.847 125.13C315.11 125.455 317.359 125.827 319.592 126.243C319.826 126.286 320.051 126.132 320.094 125.899C322.062 126.27 324.018 126.677 325.96 127.117C325.907 127.349 326.052 127.579 326.284 127.633C328.51 128.143 330.719 128.699 332.91 129.298C333.139 129.361 333.376 129.226 333.439 128.997C335.367 129.53 337.281 130.097 339.181 130.696C339.109 130.923 339.234 131.165 339.461 131.237C341.635 131.93 343.79 132.666 345.925 133.446C346.148 133.527 346.395 133.412 346.477 133.189C348.355 133.88 350.217 134.605 352.063 135.361C351.973 135.58 352.077 135.832 352.297 135.923C354.407 136.793 356.495 137.707 358.559 138.661C358.775 138.761 359.031 138.667 359.131 138.451C360.944 139.295 362.739 140.171 364.516 141.077C364.407 141.288 364.491 141.548 364.702 141.656C366.731 142.698 368.736 143.781 370.716 144.903C370.922 145.02 371.185 144.947 371.302 144.741C373.038 145.731 374.755 146.751 376.451 147.802C376.326 148.003 376.388 148.269 376.589 148.394C378.525 149.599 380.434 150.843 382.314 152.125C382.511 152.259 382.778 152.208 382.912 152.012C384.561 153.142 386.188 154.3 387.792 155.487C387.651 155.678 387.691 155.947 387.881 156.089C389.711 157.449 391.511 158.846 393.281 160.279C393.466 160.428 393.737 160.4 393.886 160.215C395.436 161.476 396.962 162.764 398.465 164.079C398.308 164.258 398.326 164.53 398.504 164.687C400.215 166.192 401.894 167.732 403.541 169.305C403.713 169.469 403.985 169.463 404.15 169.292C405.59 170.675 407.005 172.084 408.395 173.518C408.224 173.683 408.219 173.955 408.384 174.126C409.965 175.766 411.513 177.439 413.025 179.143C413.183 179.32 413.455 179.337 413.633 179.179C414.955 180.676 416.25 182.197 417.517 183.74C417.333 183.891 417.306 184.162 417.457 184.346C418.897 186.11 420.302 187.904 421.67 189.727C421.813 189.917 422.082 189.956 422.272 189.814C423.466 191.413 424.631 193.035 425.768 194.679C425.572 194.813 425.523 195.081 425.657 195.277C426.947 197.153 428.199 199.056 429.412 200.986C429.538 201.188 429.804 201.248 430.005 201.122C431.062 202.814 432.09 204.527 433.086 206.259C432.88 206.377 432.809 206.64 432.927 206.846C434.057 208.822 435.147 210.822 436.196 212.847C436.305 213.058 436.565 213.141 436.776 213.032C437.689 214.805 438.571 216.597 439.421 218.407C439.206 218.508 439.113 218.764 439.213 218.979C440.175 221.041 441.095 223.126 441.972 225.233C442.064 225.452 442.316 225.556 442.535 225.465C443.297 227.308 444.027 229.168 444.723 231.044C444.501 231.126 444.387 231.373 444.469 231.596C445.254 233.729 445.997 235.882 446.695 238.054C446.768 238.281 447.01 238.405 447.237 238.333C447.841 240.231 448.413 242.144 448.95 244.071C448.721 244.134 448.587 244.371 448.65 244.6C449.255 246.79 449.815 248.998 450.33 251.223C450.384 251.455 450.615 251.599 450.846 251.546C451.29 253.487 451.7 255.442 452.075 257.409C451.842 257.453 451.688 257.678 451.732 257.912C452.152 260.144 452.526 262.392 452.855 264.655C452.889 264.891 453.107 265.054 453.342 265.02C453.623 266.992 453.869 268.975 454.08 270.969C453.844 270.994 453.672 271.205 453.696 271.442C453.928 273.697 454.115 275.966 454.255 278.247C454.27 278.484 454.474 278.665 454.711 278.65Z" stroke="#47B5CA" stroke-width="0.861111" stroke-linecap="round" stroke-dasharray="6.89 6.89"/>
<path d="M486.569 288.5C486.569 397.892 398.114 486.569 289 486.569C179.886 486.569 91.4306 397.892 91.4306 288.5C91.4306 179.108 179.886 90.4306 289 90.4306C398.114 90.4306 486.569 179.108 486.569 288.5Z" stroke="#47B5CA" stroke-opacity="0.2" stroke-width="0.861111"/>
<path d="M545.569 288.5C545.569 429.922 430.7 544.569 289 544.569C147.3 544.569 32.4306 429.922 32.4306 288.5C32.4306 147.078 147.3 32.4306 289 32.4306C430.7 32.4306 545.569 147.078 545.569 288.5Z" stroke="#47B5CA" stroke-opacity="0.2" stroke-width="0.861111"/>
</g>
<g opacity="0.8" filter="url(#filter0_ddf_416_1862)">
<circle cx="289" cy="288" r="63" fill="#3A6C71"/>
</g>
<defs>
<filter id="filter0_ddf_416_1862" x="126" y="129" width="326" height="326" filterUnits="userSpaceOnUse" color-interpolation-filters="sRGB">
<feFlood flood-opacity="0" result="BackgroundImageFix"/>
<feColorMatrix in="SourceAlpha" type="matrix" values="0 0 0 0 0 0 0 0 0 0 0 0 0 0 0 0 0 0 127 0" result="hardAlpha"/>
<feOffset dy="4"/>
<feGaussianBlur stdDeviation="50"/>
<feComposite in2="hardAlpha" operator="out"/>
<feColorMatrix type="matrix" values="0 0 0 0 0.686275 0 0 0 0 0.631373 0 0 0 0 0.458824 0 0 0 1 0"/>
<feBlend mode="normal" in2="BackgroundImageFix" result="effect1_dropShadow_416_1862"/>
<feColorMatrix in="SourceAlpha" type="matrix" values="0 0 0 0 0 0 0 0 0 0 0 0 0 0 0 0 0 0 127 0" result="hardAlpha"/>
<feOffset dy="4"/>
<feGaussianBlur stdDeviation="2"/>
<feComposite in2="hardAlpha" operator="out"/>
<feColorMatrix type="matrix" values="0 0 0 0 0 0 0 0 0 0 0 0 0 0 0 0 0 0 0.25 0"/>
<feBlend mode="normal" in2="effect1_dropShadow_416_1862" result="effect2_dropShadow_416_1862"/>
<feBlend mode="normal" in="SourceGraphic" in2="effect2_dropShadow_416_1862" result="shape"/>
<feGaussianBlur stdDeviation="40" result="effect3_foregroundBlur_416_1862"/>
</filter>
<radialGradient id="paint0_radial_416_1862" cx="0" cy="0" r="1" gradientUnits="userSpaceOnUse" gradientTransform="translate(160 461) rotate(90) scale(461 160)">
<stop stop-color="#386164"/>
<stop offset="1" stop-color="#0E2235"/>
</radialGradient>
</defs>
</svg>
