<svg width="1440" height="848" viewBox="0 0 1440 848" fill="none" xmlns="http://www.w3.org/2000/svg">
<path d="M24.3255 320.734C26.6557 320.423 28.278 320.01 29.1924 319.495C30.1871 319.012 30.6648 318.247 30.6253 317.199C30.6661 316.185 30.3123 314.704 29.5637 312.757L31.4386 312.471C31.9267 313.796 32.5569 315.46 33.3291 317.464C34.1014 319.468 34.8901 321.432 35.6953 323.355C36.6189 325.562 37.5115 327.615 38.3733 329.515C39.235 331.415 39.9428 332.947 40.4967 334.111L38.6218 334.398C37.76 332.498 36.9062 331.093 36.0602 330.184C35.2708 329.251 34.2366 328.686 32.9578 328.49C31.7354 328.271 29.9592 328.316 27.629 328.626L-19.1888 334.958C-21.4624 335.245 -23.0965 335.63 -24.0912 336.113C-25.0622 336.652 -25.528 337.445 -25.4886 338.493C-25.4492 339.54 -25.0953 341.021 -24.4269 342.935L-26.3019 343.221C-26.686 341.986 -27.2807 340.406 -28.0858 338.483C-28.8344 336.535 -29.6705 334.459 -30.5941 332.252C-31.3993 330.328 -32.2446 328.388 -33.13 326.432C-33.9588 324.452 -34.7022 322.835 -35.36 321.581L-33.4851 321.295C-32.5431 323.227 -31.6892 324.632 -30.9235 325.508C-30.1341 326.441 -29.0999 327.006 -27.821 327.202C-26.5421 327.398 -24.7659 327.352 -22.4923 327.066L24.3255 320.734ZM-34.7474 297.787C-37.021 298.074 -38.6552 298.459 -39.6499 298.941C-40.6209 299.481 -41.0867 300.274 -41.0473 301.322C-41.0078 302.369 -40.6539 303.85 -39.9856 305.764L-41.8605 306.05C-42.292 304.702 -42.9222 303.037 -43.7511 301.057C-44.4997 299.11 -45.2884 297.146 -46.1172 295.166C-47.0408 292.959 -47.9335 290.906 -48.7952 289.006C-49.5767 287.139 -50.2727 285.635 -50.8831 284.494L-49.0082 284.208C-48.0899 286.085 -47.236 287.489 -46.4466 288.422C-45.6572 289.355 -44.6349 289.891 -43.3797 290.031C-42.1008 290.227 -40.3246 290.181 -38.051 289.895L8.76684 283.563C11.097 283.252 12.7193 282.839 13.6338 282.323C14.6285 281.841 15.1061 281.076 15.0667 280.028C15.1075 279.014 14.7536 277.533 14.005 275.586L15.8799 275.3C16.3207 276.511 16.9153 278.091 17.6639 280.038C18.4125 281.985 19.2486 284.062 20.1722 286.269C21.001 288.249 21.8463 290.189 22.708 292.089C23.5935 294.046 24.3368 295.663 24.9381 296.94L23.0631 297.226C22.2014 295.326 21.3475 293.922 20.5015 293.013C19.7121 292.08 18.678 291.515 17.3991 291.319C16.1768 291.099 14.4006 291.145 12.0704 291.455L-34.7474 297.787ZM-38.7834 296.484L-37.611 294.996L30.4929 322.84L29.1153 324.314L-38.7834 296.484Z" fill="white" fill-opacity="0.5"/>
<path d="M-12.5063 372.076L-16.3205 365.039L23.639 355.937C24.212 355.836 24.9051 355.634 25.7185 355.333C26.615 355.056 27.3429 354.662 27.9023 354.149C28.4617 353.637 28.5076 352.949 28.0399 352.086C27.3969 350.9 26.1923 350.158 24.426 349.86C22.6597 349.561 19.9745 349.691 16.3703 350.249L12.8077 350.82L11.9747 349.283L18.9752 348.105C21.6783 347.686 23.9153 347.695 25.6861 348.13C27.4861 348.619 28.9234 349.34 29.9977 350.293C31.1553 351.27 32.0263 352.298 32.6109 353.376C33.4877 354.994 33.7386 356.358 33.3637 357.468C33.0426 358.549 32.3036 359.438 31.1466 360.135C30.0727 360.856 28.8156 361.433 27.3753 361.865C25.9351 362.297 24.5341 362.672 23.1725 362.992L-12.5063 372.076ZM33.2243 376.903C34.5612 376.667 35.7712 376.325 36.8542 375.877C37.9664 375.484 38.7583 374.95 39.23 374.275C39.7848 373.626 39.7846 372.789 39.2293 371.764C38.4109 370.255 36.5612 369.094 33.6802 368.284C30.8824 367.498 27.3004 367.068 22.9343 366.993C18.6514 366.942 13.8315 367.253 8.47464 367.924C3.17172 368.566 -2.35244 369.572 -8.09783 370.942L6.2901 366.596C14.1051 365.57 20.4845 365.112 25.4281 365.223C30.3717 365.333 34.2369 366.029 37.0236 367.309C39.8396 368.643 41.9198 370.55 43.2643 373.031C44.1995 374.756 44.4674 376.215 44.0677 377.409C43.7512 378.627 43.0167 379.653 41.8642 380.487C40.7117 381.321 39.3614 381.983 37.8133 382.473C36.2944 383.017 34.8003 383.478 33.3308 383.856L-1.63366 392.135L-5.57937 384.855L33.2243 376.903ZM44.1846 397.123C46.1484 396.757 47.8313 396.193 49.2333 395.433C50.6892 394.644 51.0956 393.656 50.4526 392.47C49.5758 390.853 47.7115 389.666 44.8597 388.909C42.008 388.153 38.3182 387.781 33.7903 387.793C29.3164 387.776 24.2223 388.096 18.5082 388.751C12.8772 389.432 6.79016 390.429 0.247038 391.743L11.6083 387.992C18.356 387.055 24.1533 386.424 29.0002 386.099C33.901 385.745 38.0322 385.773 41.394 386.183C44.7557 386.593 47.4727 387.423 49.5448 388.672C51.6709 389.891 53.3185 391.58 54.4876 393.736C55.7152 396.001 55.9011 397.889 55.0454 399.399C54.1897 400.909 52.7744 402.095 50.7994 402.956C48.9076 403.842 46.8843 404.485 44.7295 404.886L16.8593 409.842C14.8954 410.209 13.526 410.707 12.7509 411.336C12.0298 411.936 11.9615 412.776 12.546 413.854C13.1013 414.879 14.2082 415.569 15.8667 415.926C17.5543 416.337 20.3227 416.232 24.1718 415.61L27.7344 415.04L28.5674 416.576L21.5669 417.755C18.893 418.227 16.6561 418.219 14.856 417.73C13.0852 417.294 11.648 416.573 10.5444 415.567C9.41606 414.644 8.54503 413.616 7.93125 412.484C7.20056 411.136 6.8317 409.94 6.82466 408.898C6.79292 407.938 6.98368 407.067 7.39691 406.285C8.0707 405.083 9.22094 404.18 10.8477 403.578C12.5283 402.946 14.5415 402.413 16.8873 401.978L44.1846 397.123Z" fill="white" fill-opacity="0.5"/>
<path d="M77.625 433.358C76.5473 431.717 74.8368 430.566 72.4937 429.904C70.2355 429.26 67.5577 429.038 64.4604 429.238C61.4479 429.456 58.2378 429.988 54.8299 430.832C51.4557 431.729 48.1137 432.897 44.8039 434.338C41.4941 435.779 38.4809 437.392 35.7642 439.177C33.4576 440.692 32.0018 442.163 31.3969 443.588C30.8257 445.064 31.0116 446.519 31.9547 447.955C33.0325 449.595 34.7004 450.737 36.9586 451.382C39.3018 452.044 41.9964 452.292 45.0425 452.125C48.1399 451.924 51.3757 451.376 54.7498 450.48C58.124 449.584 61.4404 448.432 64.6989 447.025C68.0087 445.584 71.0476 443.954 73.8155 442.135C76.1734 440.586 77.6292 439.116 78.1828 437.725C78.7877 436.3 78.6018 434.844 77.625 433.358ZM35.2638 430.038C37.5192 428.557 40.1817 427.247 43.2513 426.111C46.3209 424.975 49.5669 424.163 52.9894 423.675C56.4119 423.188 59.7721 423.108 63.0701 423.437C66.4018 423.816 69.483 424.764 72.3137 426.28C75.1958 427.762 77.5798 429.938 79.4659 432.809C81.5541 435.987 82.2217 439.181 81.4688 442.391C80.8009 445.618 78.4166 448.579 74.3159 451.274C72.0606 452.756 69.3981 454.065 66.3285 455.201C63.2589 456.337 60.0128 457.149 56.5903 457.637C53.1678 458.124 49.7908 458.178 46.4591 457.799C43.1611 457.471 40.0711 456.565 37.1891 455.083C34.3584 453.567 31.9999 451.374 30.1138 448.504C28.0256 445.326 27.3412 442.106 28.0604 438.845C28.8133 435.635 31.2144 432.699 35.2638 430.038Z" fill="white" fill-opacity="0.5"/>
<path d="M61.7992 485.624C63.4755 487.894 65.7653 489.29 68.6688 489.815C71.5722 490.339 74.8555 490.087 78.5186 489.059L79.0232 490.516C76.2694 491.33 73.4139 491.8 70.4566 491.925C67.5358 492.1 64.7663 491.706 62.1482 490.742C59.5302 489.779 57.2919 488.039 55.4334 485.523C53.83 483.352 53.0179 481.169 52.9972 478.973C52.9764 476.777 54.0267 474.895 56.1481 473.328C57.9241 472.016 59.849 471.319 61.9227 471.236C64.0329 471.202 66.2448 471.513 68.5585 472.168C70.958 472.835 73.3445 473.589 75.7182 474.428C78.1776 475.28 80.6382 475.979 83.0999 476.524C85.598 477.119 87.9826 477.302 90.2537 477.074C92.6105 476.858 94.8496 475.966 96.971 474.399C98.2043 473.488 98.9477 472.482 99.2011 471.38C99.5038 470.241 99.1815 469.03 98.234 467.748C96.995 466.07 94.882 464.81 91.8951 463.966C88.9445 463.172 85.0115 463.37 80.096 464.561L79.6461 463.177C85.4989 461.294 90.5375 460.889 94.7618 461.963C99.0718 463.049 102.375 465.147 104.67 468.255C106.055 470.129 106.777 472.036 106.837 473.975C106.982 475.926 106.117 477.594 104.243 478.979C102.614 480.182 100.721 480.818 98.5612 480.888C96.4381 481.007 94.1276 480.77 91.6294 480.175C89.1678 479.629 86.6332 478.985 84.0258 478.243C81.4547 477.549 78.8709 476.941 76.2741 476.419C73.763 475.91 71.3291 475.764 68.9723 475.98C66.7012 476.208 64.6283 477.015 62.7536 478.4C61.3723 479.42 60.6096 480.556 60.4655 481.806C60.3708 483.019 60.8153 484.292 61.7992 485.624Z" fill="white" fill-opacity="0.5"/>
<path d="M173.614 538.559C175.701 537.478 177.088 536.54 177.774 535.745C178.546 534.954 178.736 534.073 178.345 533.101C178.04 532.132 177.205 530.859 175.842 529.28L177.509 528.376C178.417 529.457 179.573 530.81 180.979 532.434C182.384 534.058 183.791 535.639 185.199 537.176C186.816 538.94 188.351 540.57 189.805 542.066C191.259 543.562 192.444 544.764 193.359 545.672L191.692 546.576C190.238 545.08 188.959 544.047 187.855 543.478C186.796 542.868 185.632 542.687 184.362 542.935C183.138 543.142 181.482 543.786 179.394 544.867L137.485 566.676C135.443 567.715 134.035 568.631 133.263 569.422C132.532 570.258 132.362 571.162 132.754 572.134C133.145 573.106 133.98 574.38 135.257 575.955L133.589 576.859C132.81 575.827 131.715 574.542 130.306 573.004C128.943 571.425 127.453 569.754 125.837 567.991C124.428 566.453 122.976 564.914 121.48 563.373C120.03 561.79 118.783 560.52 117.74 559.563L119.407 558.659C120.948 560.159 122.227 561.191 123.244 561.757C124.302 562.367 125.467 562.548 126.736 562.3C128.006 562.051 129.662 561.407 131.704 560.368L173.614 538.559ZM110.26 536.967C108.218 538.007 106.811 538.922 106.038 539.713C105.307 540.549 105.138 541.454 105.529 542.426C105.921 543.398 106.755 544.671 108.032 546.247L106.365 547.151C105.502 546.028 104.346 544.675 102.896 543.092C101.532 541.513 100.125 539.933 98.6746 538.35C97.0585 536.586 95.5234 534.957 94.0693 533.461C92.7019 531.968 91.5379 530.789 90.5772 529.922L92.2446 529.018C93.7439 530.473 95.0229 531.505 96.0815 532.116C97.1401 532.726 98.2836 532.885 99.5119 532.591C100.782 532.343 102.438 531.699 104.48 530.659L146.389 508.851C148.477 507.77 149.863 506.832 150.549 506.037C151.322 505.246 151.512 504.364 151.12 503.392C150.815 502.424 149.981 501.15 148.617 499.571L150.285 498.667C151.11 499.658 152.204 500.943 153.568 502.522C154.931 504.101 156.421 505.772 158.037 507.536C159.487 509.118 160.94 510.658 162.394 512.154C163.889 513.695 165.136 514.965 166.134 515.963L164.467 516.867C163.013 515.371 161.734 514.339 160.63 513.77C159.572 513.159 158.407 512.978 157.138 513.227C155.913 513.434 154.257 514.078 152.17 515.159L110.26 536.967ZM106.022 537.108L106.621 535.311L180.13 538.453L179.333 540.306L106.022 537.108Z" fill="white" fill-opacity="0.5"/>
<path d="M157.185 600.058L151.206 594.737L185.692 572.594C186.197 572.304 186.78 571.879 187.443 571.319C188.192 570.754 188.742 570.136 189.094 569.464C189.446 568.792 189.255 568.129 188.522 567.477C187.514 566.58 186.129 566.291 184.367 566.611C182.604 566.931 180.123 567.966 176.923 569.716L173.767 571.464L172.461 570.302L178.644 566.814C181.044 565.501 183.15 564.749 184.964 564.556C186.823 564.404 188.42 564.594 189.754 565.124C191.175 565.65 192.343 566.32 193.259 567.136C194.634 568.359 195.333 569.557 195.358 570.728C195.424 571.854 195.031 572.941 194.18 573.99C193.415 575.033 192.429 576.003 191.221 576.899C190.013 577.795 188.824 578.624 187.652 579.387L157.185 600.058ZM201.834 589.053C203.011 588.377 204.032 587.644 204.899 586.855C205.811 586.107 206.374 585.335 206.589 584.541C206.89 583.741 206.605 582.954 205.734 582.179C204.451 581.038 202.318 580.575 199.333 580.793C196.434 581.005 192.919 581.818 188.788 583.231C184.743 584.64 180.315 586.57 175.506 589.022C170.737 591.428 165.883 594.252 160.946 597.494L173 588.516C180 584.894 185.844 582.295 190.531 580.719C195.218 579.142 199.09 578.483 202.145 578.739C205.247 579.036 207.852 580.123 209.959 581.999C211.426 583.303 212.173 584.585 212.203 585.843C212.32 587.096 211.978 588.311 211.177 589.487C210.377 590.663 209.332 591.745 208.043 592.732C206.799 593.76 205.551 594.702 204.297 595.557L174.229 615.227L168.044 609.722L201.834 589.053ZM219.015 604.344C220.737 603.332 222.128 602.23 223.188 601.038C224.289 599.801 224.336 598.734 223.328 597.837C221.953 596.614 219.796 596.131 216.857 596.389C213.918 596.647 210.322 597.552 206.068 599.103C201.855 600.608 197.172 602.64 192.021 605.199C186.957 607.752 181.571 610.759 175.865 614.219L185.274 606.829C191.302 603.655 196.539 601.091 200.987 599.138C205.476 597.139 209.37 595.761 212.671 595.004C215.972 594.247 218.81 594.104 221.183 594.574C223.597 594.998 225.72 596.025 227.553 597.657C229.477 599.369 230.294 601.081 230.002 602.792C229.711 604.503 228.783 606.1 227.218 607.581C225.74 609.057 224.056 610.35 222.166 611.459L197.64 625.594C195.918 626.606 194.799 627.54 194.284 628.396C193.81 629.205 194.031 630.018 194.947 630.833C195.818 631.608 197.093 631.881 198.774 631.653C200.501 631.466 203.069 630.426 206.478 628.533L209.634 626.785L210.94 627.947L204.757 631.435C202.403 632.789 200.296 633.541 198.437 633.693C196.624 633.885 195.027 633.696 193.647 633.124C192.272 632.64 191.103 631.969 190.141 631.113C188.996 630.094 188.243 629.095 187.882 628.117C187.526 627.225 187.409 626.341 187.532 625.465C187.757 624.105 188.532 622.866 189.857 621.746C191.222 620.58 192.935 619.395 194.993 618.189L219.015 604.344Z" fill="white" fill-opacity="0.5"/>
<path d="M262.447 626.81C260.876 625.632 258.877 625.129 256.448 625.301C254.105 625.46 251.511 626.16 248.665 627.399C245.905 628.625 243.065 630.214 240.146 632.164C237.275 634.152 234.528 636.384 231.903 638.862C229.278 641.34 226.99 643.879 225.04 646.48C223.384 648.688 222.513 650.564 222.427 652.11C222.39 653.692 223.059 654.999 224.432 656.029C226.003 657.207 227.959 657.716 230.302 657.556C232.731 657.385 235.35 656.704 238.159 655.514C241.005 654.275 243.863 652.662 246.733 650.675C249.604 648.687 252.333 646.479 254.921 644.051C257.546 641.573 259.852 639.009 261.839 636.359C263.532 634.102 264.403 632.226 264.452 630.729C264.538 629.183 263.87 627.877 262.447 626.81ZM221.47 638.052C223.089 635.893 225.15 633.759 227.652 631.649C230.155 629.539 232.933 627.675 235.987 626.056C239.042 624.436 242.176 623.222 245.39 622.412C248.653 621.639 251.873 621.486 255.05 621.952C258.264 622.369 261.244 623.608 263.992 625.669C267.034 627.951 268.746 630.729 269.126 634.004C269.592 637.267 268.353 640.861 265.409 644.787C263.79 646.946 261.729 649.08 259.227 651.19C256.724 653.3 253.946 655.164 250.892 656.783C247.837 658.403 244.679 659.599 241.416 660.372C238.202 661.181 234.988 661.377 231.774 660.96C228.597 660.494 225.635 659.231 222.887 657.17C219.845 654.888 218.109 652.092 217.68 648.78C217.299 645.504 218.563 641.929 221.47 638.052Z" fill="white" fill-opacity="0.5"/>
<path d="M265.335 681.374C267.682 682.94 270.31 683.478 273.219 682.987C276.128 682.495 279.131 681.145 282.229 678.935L283.197 680.135C280.883 681.835 278.356 683.245 275.616 684.366C272.928 685.521 270.189 686.089 267.399 686.07C264.609 686.051 261.914 685.174 259.312 683.437C257.068 681.938 255.563 680.16 254.799 678.101C254.035 676.042 254.385 673.916 255.85 671.723C257.076 669.886 258.65 668.577 260.573 667.796C262.546 667.049 264.733 666.591 267.131 666.423C269.615 666.237 272.116 666.137 274.633 666.121C277.236 666.089 279.788 665.912 282.288 665.59C284.84 665.303 287.146 664.667 289.205 663.681C291.349 662.679 293.153 661.081 294.617 658.888C295.468 657.613 295.826 656.414 295.691 655.291C295.59 654.117 294.876 653.087 293.55 652.202C291.815 651.044 289.4 650.575 286.304 650.794C283.259 651.047 279.626 652.567 275.406 655.354L274.513 654.205C279.381 650.449 283.984 648.36 288.322 647.937C292.745 647.498 296.563 648.351 299.777 650.496C301.715 651.79 303.041 653.339 303.754 655.143C304.553 656.93 304.305 658.792 303.011 660.731C301.887 662.414 300.321 663.655 298.313 664.453C296.357 665.285 294.102 665.845 291.55 666.132C289.05 666.454 286.447 666.707 283.742 666.893C281.088 667.112 278.451 667.417 275.831 667.806C273.296 668.179 270.957 668.866 268.813 669.868C266.754 670.854 265.078 672.315 263.783 674.254C262.83 675.682 262.497 677.009 262.786 678.234C263.108 679.408 263.958 680.454 265.335 681.374Z" fill="white" fill-opacity="0.5"/>
<path d="M388.546 693.223C390.141 691.496 391.126 690.143 391.501 689.162C391.958 688.155 391.837 687.261 391.138 686.48C390.522 685.674 389.304 684.76 387.485 683.739L388.745 682.322C389.967 683.03 391.514 683.909 393.388 684.958C395.262 686.007 397.123 687.015 398.971 687.982C401.09 689.09 403.088 690.101 404.964 691.013C406.841 691.925 408.364 692.652 409.533 693.195L408.273 694.612C406.397 693.7 404.843 693.164 403.611 693.004C402.408 692.79 401.252 693.016 400.142 693.682C399.061 694.293 397.723 695.462 396.128 697.188L364.136 731.952C362.569 733.624 361.557 734.964 361.099 735.971C360.696 737.006 360.844 737.914 361.543 738.695C362.242 739.476 363.46 740.389 365.197 741.436L363.936 742.853C362.852 742.148 361.386 741.312 359.538 740.345C357.718 739.324 355.749 738.259 353.629 737.151C351.782 736.184 349.892 735.231 347.962 734.29C346.06 733.295 344.455 732.525 343.148 731.98L344.409 730.563C346.368 731.449 347.922 731.985 349.07 732.171C350.274 732.385 351.43 732.159 352.539 731.493C353.649 730.828 354.987 729.659 356.554 727.987L388.546 693.223ZM328.429 713.276C326.862 714.948 325.85 716.287 325.393 717.294C324.99 718.329 325.138 719.237 325.837 720.018C326.536 720.799 327.754 721.713 329.49 722.76L328.23 724.177C327.037 723.414 325.489 722.536 323.587 721.541C321.767 720.52 319.907 719.512 318.004 718.517C315.885 717.408 313.887 716.398 312.011 715.486C310.217 714.548 308.721 713.835 307.523 713.346L308.784 711.929C310.688 712.787 312.242 713.323 313.445 713.537C314.649 713.751 315.778 713.511 316.833 712.817C317.942 712.151 319.281 710.982 320.847 709.31L352.839 674.546C354.435 672.82 355.42 671.466 355.794 670.485C356.252 669.479 356.131 668.585 355.432 667.804C354.815 666.997 353.598 666.083 351.778 665.062L353.039 663.645C354.152 664.297 355.618 665.133 357.437 666.153C359.256 667.174 361.226 668.239 363.346 669.348C365.248 670.343 367.137 671.296 369.013 672.208C370.944 673.149 372.548 673.919 373.827 674.518L372.566 675.936C370.69 675.024 369.136 674.488 367.905 674.328C366.701 674.114 365.545 674.34 364.435 675.005C363.354 675.616 362.016 676.785 360.421 678.512L328.429 713.276ZM324.491 714.85L324.443 712.956L394.637 690.906L394.518 692.921L324.491 714.85Z" fill="white" fill-opacity="0.5"/>
<path d="M394.172 756.754L386.732 753.803L411.55 721.188C411.924 720.743 412.327 720.144 412.758 719.391C413.268 718.604 413.573 717.834 413.674 717.082C413.774 716.33 413.368 715.773 412.456 715.411C411.202 714.913 409.802 715.117 408.255 716.021C406.709 716.925 404.732 718.747 402.325 721.487L399.958 724.21L398.333 723.566L402.948 718.171C404.753 716.116 406.475 714.688 408.112 713.886C409.807 713.106 411.372 712.738 412.808 712.779C414.322 712.786 415.65 713.016 416.79 713.468C418.5 714.147 419.568 715.032 419.992 716.125C420.439 717.16 420.442 718.316 420.002 719.593C419.641 720.835 419.046 722.084 418.219 723.339C417.391 724.594 416.557 725.781 415.717 726.9L394.172 756.754ZM432.352 731.124C433.226 730.085 433.935 729.047 434.479 728.009C435.079 726.993 435.344 726.076 435.274 725.256C435.283 724.402 434.746 723.76 433.662 723.33C432.066 722.697 429.903 722.993 427.173 724.219C424.523 725.411 421.499 727.379 418.101 730.122C414.783 732.83 411.284 736.16 407.605 740.111C403.949 744.005 400.356 748.32 396.827 753.057L405.078 740.494C410.414 734.693 415.015 730.25 418.878 727.164C422.742 724.078 426.154 722.132 429.113 721.327C432.128 720.544 434.948 720.673 437.57 721.713C439.395 722.437 440.536 723.385 440.995 724.557C441.533 725.694 441.628 726.952 441.279 728.331C440.93 729.71 440.318 731.085 439.445 732.454C438.629 733.846 437.779 735.158 436.894 736.39L415.38 765.169L407.684 762.115L432.352 731.124ZM453.73 739.606C455.002 738.065 455.931 736.553 456.52 735.071C457.13 733.532 456.809 732.513 455.554 732.016C453.844 731.337 451.652 731.622 448.979 732.871C446.306 734.12 443.237 736.202 439.771 739.116C436.328 741.973 432.625 745.485 428.662 749.653C424.779 753.787 420.748 758.457 416.572 763.662L422.881 753.496C427.457 748.45 431.5 744.247 435.01 740.889C438.543 737.473 441.73 734.845 444.572 733.003C447.414 731.162 450.031 730.055 452.421 729.684C454.835 729.256 457.182 729.494 459.462 730.399C461.856 731.349 463.21 732.678 463.522 734.385C463.834 736.093 463.509 737.91 462.547 739.838C461.663 741.731 460.524 743.522 459.128 745.212L440.925 766.891C439.654 768.432 438.923 769.693 438.732 770.673C438.564 771.596 439.05 772.283 440.19 772.736C441.273 773.166 442.565 772.985 444.067 772.195C445.625 771.428 447.681 769.571 450.236 766.626L452.603 763.903L454.227 764.548L449.613 769.942C447.865 772.02 446.143 773.448 444.448 774.227C442.81 775.029 441.245 775.398 439.753 775.334C438.295 775.349 436.968 775.12 435.771 774.645C434.345 774.079 433.296 773.399 432.622 772.603C431.982 771.888 431.569 771.097 431.385 770.232C431.13 768.877 431.434 767.447 432.295 765.941C433.179 764.379 434.382 762.678 435.903 760.84L453.73 739.606Z" fill="white" fill-opacity="0.5"/>
<path d="M501.916 745.821C500.039 745.251 497.988 745.461 495.763 746.452C493.616 747.402 491.416 748.945 489.165 751.082C486.99 753.177 484.863 755.64 482.786 758.47C480.767 761.318 478.947 764.355 477.326 767.581C475.705 770.806 474.422 773.974 473.477 777.084C472.675 779.725 472.497 781.787 472.944 783.269C473.45 784.768 474.525 785.768 476.168 786.267C478.046 786.838 480.059 786.648 482.206 785.698C484.43 784.707 486.659 783.172 488.893 781.095C491.145 778.958 493.28 776.466 495.299 773.618C497.318 770.77 499.129 767.762 500.732 764.595C502.353 761.37 503.645 758.173 504.607 755.004C505.428 752.304 505.605 750.243 505.14 748.82C504.693 747.338 503.618 746.338 501.916 745.821ZM467.244 770.383C468.028 767.801 469.236 765.091 470.867 762.253C472.499 759.416 474.473 756.714 476.791 754.149C479.108 751.584 481.639 749.372 484.383 747.514C487.186 745.673 490.16 744.429 493.305 743.782C496.468 743.076 499.693 743.223 502.979 744.221C506.618 745.326 509.175 747.353 510.651 750.302C512.204 753.209 512.267 757.01 510.841 761.705C510.056 764.287 508.848 766.997 507.217 769.835C505.586 772.672 503.611 775.374 501.294 777.939C498.976 780.504 496.416 782.707 493.613 784.548C490.869 786.406 487.915 787.688 484.752 788.394C481.607 789.041 478.391 788.865 475.105 787.867C471.467 786.762 468.88 784.726 467.345 781.76C465.869 778.811 465.835 775.019 467.244 770.383Z" fill="white" fill-opacity="0.5"/>
<path d="M523.522 796.176C526.264 796.842 528.917 796.444 531.48 794.983C534.044 793.522 536.4 791.223 538.551 788.084L539.873 788.878C538.283 791.269 536.394 793.462 534.206 795.455C532.078 797.463 529.7 798.938 527.074 799.878C524.447 800.819 521.614 800.92 518.574 800.183C515.952 799.546 513.928 798.392 512.503 796.721C511.078 795.05 510.677 792.933 511.299 790.37C511.82 788.225 512.849 786.455 514.386 785.06C515.983 783.681 517.879 782.5 520.074 781.518C522.343 780.49 524.657 779.537 527.016 778.658C529.449 777.734 531.785 776.691 534.023 775.53C536.321 774.384 538.267 772.994 539.863 771.362C541.532 769.684 542.678 767.564 543.3 765.001C543.661 763.511 543.586 762.262 543.073 761.254C542.574 760.186 541.55 759.464 540.001 759.088C537.974 758.596 535.545 758.985 532.712 760.254C529.939 761.538 527.05 764.213 524.043 768.28L522.811 767.508C526.092 762.308 529.697 758.765 533.626 756.879C537.629 754.947 541.508 754.436 545.263 755.348C547.528 755.897 549.305 756.896 550.595 758.345C551.958 759.749 552.365 761.583 551.815 763.848C551.338 765.815 550.294 767.518 548.682 768.958C547.13 770.411 545.206 771.711 542.908 772.858C540.67 774.019 538.312 775.151 535.835 776.254C533.418 777.372 531.047 778.563 528.72 779.829C526.467 781.049 524.506 782.499 522.837 784.176C521.242 785.809 520.169 787.758 519.62 790.022C519.215 791.691 519.358 793.052 520.049 794.103C520.755 795.095 521.913 795.786 523.522 796.176Z" fill="white" fill-opacity="0.5"/>
<path d="M643.194 765.048C644.098 762.878 644.558 761.268 644.572 760.218C644.656 759.116 644.235 758.318 643.31 757.825C642.454 757.279 640.996 756.84 638.937 756.506L639.633 754.742C641.024 754.987 642.779 755.281 644.9 755.622C647.02 755.963 649.114 756.27 651.181 756.542C653.553 756.855 655.776 757.117 657.852 757.328C659.927 757.54 661.607 757.699 662.892 757.807L662.196 759.571C660.12 759.359 658.477 759.39 657.266 759.664C656.062 759.876 655.054 760.486 654.241 761.492C653.436 762.438 652.581 763.996 651.676 766.165L633.585 809.808C632.688 811.917 632.198 813.523 632.115 814.625C632.092 815.736 632.543 816.538 633.468 817.031C634.393 817.524 635.851 817.963 637.841 818.349L637.145 820.113C635.884 819.824 634.22 819.542 632.152 819.27C630.093 818.937 627.877 818.614 625.506 818.301C623.438 818.029 621.337 817.783 619.2 817.564C617.072 817.283 615.301 817.112 613.886 817.049L614.582 815.285C616.727 815.444 618.37 815.413 619.513 815.192C620.716 814.979 621.724 814.37 622.537 813.363C623.351 812.357 624.205 810.799 625.102 808.69L643.194 765.048ZM593.634 804.544C592.737 806.653 592.247 808.259 592.164 809.362C592.141 810.472 592.592 811.274 593.517 811.767C594.442 812.26 595.9 812.7 597.891 813.086L597.194 814.85C595.812 814.544 594.056 814.251 591.928 813.97C589.868 813.637 587.775 813.33 585.646 813.05C583.275 812.737 581.051 812.475 578.976 812.264C576.969 811.999 575.319 811.844 574.026 811.797L574.723 810.033C576.806 810.184 578.45 810.153 579.653 809.94C580.857 809.728 581.834 809.114 582.587 808.1C583.4 807.093 584.255 805.536 585.151 803.427L603.243 759.784C604.147 757.614 604.607 756.004 604.622 754.955C604.705 753.852 604.284 753.054 603.359 752.561C602.503 752.016 601.046 751.576 598.986 751.243L599.683 749.479C600.952 749.708 602.616 749.989 604.675 750.322C606.735 750.655 608.95 750.978 611.322 751.291C613.45 751.571 615.552 751.817 617.627 752.029C619.764 752.248 621.535 752.42 622.942 752.543L622.245 754.307C620.17 754.096 618.526 754.127 617.315 754.4C616.111 754.613 615.103 755.222 614.29 756.229C613.485 757.174 612.63 758.732 611.726 760.902L593.634 804.544ZM590.477 807.376L589.781 805.614L648.118 760.778L648.698 762.711L590.477 807.376Z" fill="white" fill-opacity="0.5"/>
<path d="M669.764 822.789L661.764 822.542L674.017 783.433C674.218 782.887 674.393 782.187 674.542 781.332C674.755 780.419 674.78 779.591 674.619 778.85C674.458 778.108 673.887 777.722 672.906 777.692C671.557 777.651 670.309 778.318 669.162 779.694C668.015 781.069 666.776 783.455 665.444 786.85L664.143 790.216L662.396 790.162L664.902 783.52C665.901 780.973 667.035 779.045 668.302 777.734C669.631 776.425 670.978 775.546 672.342 775.098C673.769 774.589 675.095 774.354 676.321 774.392C678.16 774.449 679.465 774.919 680.236 775.802C681.008 776.623 681.404 777.709 681.424 779.06C681.507 780.351 681.372 781.727 681.02 783.189C680.668 784.651 680.287 786.051 679.878 787.388L669.764 822.789ZM696.958 785.707C697.427 784.432 697.741 783.215 697.899 782.054C698.119 780.895 698.056 779.942 697.711 779.195C697.429 778.388 696.706 777.967 695.541 777.931C693.825 777.878 691.891 778.892 689.741 780.973C687.653 782.995 685.478 785.874 683.215 789.608C681.015 793.283 678.857 797.604 676.74 802.57C674.625 807.475 672.713 812.755 671.004 818.409L674.493 803.79C677.54 796.52 680.356 790.778 682.941 786.562C685.525 782.347 688.072 779.357 690.581 777.594C693.152 775.832 695.847 774.995 698.667 775.082C700.628 775.143 702.024 775.646 702.854 776.592C703.747 777.479 704.264 778.63 704.404 780.046C704.545 781.461 704.437 782.961 704.081 784.546C703.787 786.132 703.433 787.655 703.02 789.115L692.569 823.493L684.293 823.237L696.958 785.707ZM719.947 786.417C720.619 784.535 720.979 782.797 721.028 781.203C721.079 779.548 720.431 778.7 719.082 778.658C717.243 778.601 715.279 779.615 713.189 781.698C711.1 783.781 708.921 786.782 706.652 790.7C704.386 794.557 702.097 799.12 699.787 804.387C697.539 809.595 695.336 815.356 693.178 821.671L695.656 809.966C698.244 803.664 700.618 798.338 702.777 793.986C704.938 789.573 707.042 786.018 709.089 783.32C711.136 780.622 713.221 778.692 715.343 777.53C717.467 776.307 719.755 775.734 722.207 775.809C724.782 775.889 726.507 776.678 727.381 778.178C728.255 779.678 728.567 781.498 728.317 783.638C728.13 785.718 727.667 787.79 726.928 789.854L717.179 816.429C716.507 818.311 716.248 819.745 716.402 820.731C716.557 821.657 717.248 822.138 718.474 822.176C719.639 822.212 720.793 821.603 721.936 820.35C723.141 819.099 724.444 816.654 725.845 813.015L727.145 809.65L728.892 809.704L726.386 816.346C725.448 818.894 724.315 820.822 722.986 822.131C721.718 823.442 720.372 824.321 718.946 824.768C717.581 825.278 716.254 825.513 714.967 825.473C713.434 825.426 712.216 825.143 711.311 824.624C710.466 824.169 709.81 823.565 709.342 822.815C708.643 821.627 708.442 820.179 708.74 818.47C709.04 816.7 709.593 814.692 710.399 812.446L719.947 786.417Z" fill="white" fill-opacity="0.5"/>
<path d="M770.354 775.703C768.394 775.809 766.539 776.707 764.787 778.399C763.094 780.026 761.555 782.229 760.169 785.006C758.842 787.719 757.686 790.761 756.701 794.131C755.777 797.497 755.106 800.973 754.685 804.559C754.265 808.144 754.142 811.56 754.318 814.805C754.467 817.561 755.005 819.559 755.932 820.799C756.92 822.035 758.272 822.607 759.986 822.515C761.946 822.409 763.773 821.542 765.466 819.915C767.217 818.223 768.787 816.019 770.176 813.303C771.561 810.525 772.716 807.453 773.639 804.087C774.563 800.72 775.237 797.274 775.66 793.75C776.081 790.165 776.201 786.719 776.022 783.412C775.87 780.595 775.332 778.597 774.409 777.418C773.482 776.178 772.13 775.607 770.354 775.703ZM746.169 810.639C746.023 807.945 746.232 804.985 746.795 801.761C747.357 798.536 748.289 795.323 749.59 792.12C750.891 788.917 752.513 785.973 754.456 783.288C756.461 780.6 758.83 778.414 761.565 776.731C764.296 774.986 767.376 774.021 770.806 773.835C774.603 773.63 777.699 774.66 780.094 776.926C782.547 779.128 783.906 782.678 784.171 787.578C784.317 790.273 784.109 793.232 783.546 796.457C782.983 799.681 782.051 802.895 780.75 806.098C779.449 809.3 777.797 812.246 775.792 814.934C773.849 817.619 771.512 819.834 768.781 821.578C766.046 823.262 762.964 824.196 759.535 824.382C755.737 824.587 752.611 823.558 750.154 821.296C747.759 819.03 746.431 815.478 746.169 810.639Z" fill="white" fill-opacity="0.5"/>
<path d="M807.542 815.637C810.347 815.334 812.708 814.06 814.624 811.816C816.54 809.573 817.977 806.61 818.935 802.928L820.448 803.227C819.763 806.016 818.73 808.719 817.348 811.336C816.027 813.947 814.29 816.14 812.138 817.916C809.986 819.691 807.356 820.747 804.246 821.084C801.563 821.375 799.268 820.976 797.361 819.887C795.454 818.798 794.358 816.943 794.074 814.321C793.836 812.126 794.204 810.112 795.177 808.279C796.212 806.439 797.595 804.685 799.327 803.017C801.113 801.281 802.966 799.6 804.888 797.973C806.863 796.278 808.707 794.505 810.419 792.654C812.192 790.796 813.552 788.829 814.499 786.752C815.5 784.608 815.859 782.224 815.575 779.602C815.41 778.078 814.915 776.929 814.091 776.154C813.26 775.319 812.052 774.987 810.466 775.159C808.393 775.384 806.24 776.573 804.005 778.728C801.832 780.876 800.021 784.372 798.572 789.218L797.15 788.909C798.474 782.905 800.664 778.349 803.72 775.242C806.831 772.067 810.307 770.272 814.149 769.855C816.466 769.604 818.476 769.942 820.181 770.867C821.939 771.726 822.944 773.313 823.195 775.63C823.413 777.643 823.008 779.599 821.981 781.499C821.014 783.393 819.644 785.269 817.871 787.127C816.159 788.978 814.325 790.842 812.369 792.72C810.475 794.591 808.647 796.516 806.888 798.496C805.183 800.408 803.829 802.437 802.828 804.581C801.881 806.658 801.533 808.855 801.784 811.172C801.969 812.879 802.565 814.11 803.572 814.865C804.572 815.558 805.896 815.816 807.542 815.637Z" fill="white" fill-opacity="0.5"/>
<path d="M909.497 745.553C909.611 743.205 909.497 741.535 909.155 740.543C908.859 739.477 908.193 738.87 907.155 738.72C906.165 738.497 904.644 738.578 902.594 738.963L902.651 737.067C904.042 736.826 905.793 736.506 907.903 736.108C910.013 735.709 912.087 735.287 914.124 734.842C916.461 734.331 918.641 733.823 920.665 733.318C922.69 732.813 924.324 732.393 925.569 732.058L925.513 733.954C923.489 734.459 921.953 735.046 920.907 735.714C919.847 736.322 919.105 737.238 918.682 738.46C918.245 739.623 917.97 741.378 917.855 743.726L915.646 790.919C915.518 793.207 915.602 794.883 915.898 795.949C916.253 797.001 916.95 797.602 917.987 797.752C919.024 797.902 920.545 797.821 922.548 797.509L922.492 799.404C921.207 799.56 919.546 799.86 917.509 800.305C915.459 800.691 913.265 801.139 910.928 801.649C908.891 802.095 906.83 802.577 904.746 803.095C902.649 803.553 900.925 803.993 899.573 804.414L899.629 802.518C901.7 801.94 903.236 801.353 904.236 800.758C905.295 800.15 906.037 799.234 906.46 798.012C906.884 796.789 907.159 795.034 907.287 792.746L909.497 745.553ZM876.279 799.523C876.151 801.811 876.235 803.488 876.531 804.554C876.887 805.606 877.583 806.207 878.62 806.357C879.658 806.507 881.178 806.426 883.182 806.113L883.125 808.009C881.721 808.191 879.97 808.511 877.873 808.969C875.823 809.354 873.749 809.776 871.652 810.235C869.315 810.745 867.134 811.253 865.11 811.759C863.133 812.191 861.528 812.604 860.296 812.999L860.353 811.103C862.364 810.538 863.899 809.952 864.959 809.343C866.019 808.735 866.73 807.826 867.094 806.616C867.517 805.394 867.793 803.638 867.92 801.35L870.13 754.158C870.245 751.81 870.131 750.14 869.788 749.147C869.493 748.082 868.826 747.474 867.789 747.324C866.798 747.101 865.278 747.183 863.228 747.568L863.284 745.672C864.555 745.457 866.216 745.157 868.267 744.771C870.317 744.386 872.511 743.938 874.847 743.427C876.945 742.969 879.005 742.487 881.029 741.982C883.113 741.463 884.838 741.024 886.203 740.663L886.146 742.558C884.122 743.064 882.587 743.65 881.54 744.319C880.48 744.927 879.739 745.842 879.315 747.065C878.879 748.228 878.603 749.983 878.489 752.331L876.279 799.523ZM874.27 803.258L873.018 801.837L912.68 739.866L913.881 741.487L874.27 803.258Z" fill="white" fill-opacity="0.5"/>
<path d="M954.185 790.632L946.581 793.131L944.744 752.189C944.746 751.608 944.672 750.89 944.52 750.036C944.408 749.104 944.149 748.318 943.745 747.676C943.34 747.034 942.671 746.866 941.739 747.173C940.457 747.594 939.512 748.647 938.904 750.332C938.296 752.017 937.945 754.683 937.852 758.329L937.779 761.936L936.119 762.482L936.206 755.383C936.276 752.649 936.683 750.449 937.427 748.784C938.229 747.1 939.194 745.814 940.323 744.927C941.491 743.962 942.657 743.288 943.823 742.905C945.571 742.33 946.957 742.326 947.983 742.893C948.989 743.402 949.732 744.287 950.212 745.55C950.731 746.735 951.074 748.075 951.243 749.569C951.411 751.063 951.531 752.509 951.603 753.905L954.185 790.632ZM967.082 746.493C967.088 745.135 966.967 743.884 966.72 742.738C966.531 741.574 966.146 740.699 965.567 740.115C965.026 739.453 964.203 739.305 963.096 739.668C961.464 740.205 959.993 741.818 958.683 744.509C957.411 747.122 956.349 750.57 955.497 754.853C954.685 759.058 954.131 763.856 953.837 769.247C953.524 774.579 953.53 780.194 953.855 786.092L952.142 771.16C952.524 763.287 953.21 756.928 954.2 752.083C955.19 747.239 956.563 743.559 958.319 741.045C960.133 738.512 962.38 736.805 965.061 735.924C966.925 735.311 968.409 735.307 969.512 735.913C970.654 736.442 971.533 737.347 972.148 738.63C972.763 739.912 973.174 741.359 973.381 742.97C973.646 744.561 973.833 746.114 973.943 747.627L975.86 783.507L967.994 786.093L967.082 746.493ZM988.932 739.311C988.921 737.313 988.666 735.556 988.168 734.041C987.651 732.468 986.752 731.892 985.47 732.314C983.722 732.888 982.222 734.511 980.969 737.183C979.717 739.854 978.693 743.419 977.899 747.876C977.086 752.276 976.492 757.345 976.119 763.085C975.785 768.747 975.682 774.914 975.81 781.587L974.142 769.739C974.423 762.932 974.835 757.115 975.379 752.288C975.903 747.402 976.667 743.342 977.67 740.107C978.672 736.872 979.973 734.347 981.571 732.53C983.149 730.655 985.104 729.335 987.435 728.569C989.882 727.764 991.772 727.918 993.106 729.029C994.44 730.14 995.354 731.744 995.85 733.841C996.385 735.86 996.657 737.966 996.667 740.157L996.579 768.465C996.59 770.462 996.836 771.899 997.317 772.774C997.779 773.59 998.593 773.807 999.758 773.424C1000.87 773.06 1001.74 772.094 1002.39 770.525C1003.09 768.938 1003.48 766.195 1003.56 762.297L1003.63 758.69L1005.29 758.144L1005.2 765.242C1005.19 767.957 1004.79 770.157 1003.98 771.841C1003.24 773.506 1002.27 774.792 1001.09 775.699C999.977 776.644 998.811 777.318 997.587 777.721C996.131 778.199 994.889 778.349 993.862 778.17C992.912 778.031 992.089 777.688 991.393 777.142C990.33 776.265 989.647 774.972 989.343 773.264C989.021 771.498 988.855 769.422 988.846 767.036L988.932 739.311Z" fill="white" fill-opacity="0.5"/>
<path d="M1030.1 712.919C1028.3 713.69 1026.86 715.171 1025.8 717.36C1024.77 719.469 1024.07 722.066 1023.72 725.15C1023.41 728.154 1023.36 731.407 1023.59 734.911C1023.88 738.39 1024.44 741.886 1025.27 745.398C1026.11 748.91 1027.16 752.161 1028.44 755.15C1029.53 757.688 1030.72 759.38 1032.01 760.227C1033.36 761.05 1034.83 761.124 1036.41 760.449C1038.21 759.678 1039.63 758.238 1040.67 756.129C1041.73 753.939 1042.45 751.331 1042.82 748.303C1043.17 745.219 1043.2 741.937 1042.92 738.458C1042.63 734.978 1042.08 731.511 1041.27 728.055C1040.44 724.543 1039.37 721.264 1038.07 718.218C1036.96 715.624 1035.77 713.932 1034.5 713.141C1033.2 712.294 1031.74 712.22 1030.1 712.919ZM1019.36 754.029C1018.3 751.548 1017.48 748.696 1016.9 745.474C1016.33 742.252 1016.1 738.914 1016.22 735.459C1016.35 732.004 1016.86 728.682 1017.77 725.494C1018.73 722.282 1020.21 719.416 1022.2 716.898C1024.17 714.322 1026.73 712.36 1029.89 711.01C1033.38 709.516 1036.65 709.422 1039.67 710.73C1042.73 711.957 1045.23 714.827 1047.15 719.339C1048.21 721.82 1049.03 724.672 1049.61 727.894C1050.19 731.116 1050.41 734.455 1050.29 737.909C1050.16 741.364 1049.62 744.698 1048.66 747.91C1047.75 751.098 1046.32 753.98 1044.35 756.555C1042.36 759.074 1039.78 761.008 1036.62 762.358C1033.13 763.852 1029.84 763.958 1026.75 762.674C1023.73 761.366 1021.26 758.485 1019.36 754.029Z" fill="white" fill-opacity="0.5"/>
<path d="M1078.91 737.656C1081.43 736.404 1083.21 734.395 1084.24 731.629C1085.26 728.862 1085.59 725.586 1085.22 721.799L1086.75 721.558C1087.06 724.412 1087.02 727.306 1086.63 730.239C1086.29 733.145 1085.41 735.802 1084.01 738.211C1082.6 740.619 1080.49 742.517 1077.69 743.905C1075.27 745.102 1072.98 745.518 1070.81 745.153C1068.65 744.788 1066.98 743.423 1065.81 741.06C1064.83 739.081 1064.48 737.064 1064.76 735.008C1065.1 732.924 1065.79 730.801 1066.85 728.639C1067.92 726.394 1069.08 724.176 1070.33 721.987C1071.6 719.715 1072.72 717.416 1073.69 715.088C1074.71 712.733 1075.31 710.418 1075.48 708.142C1075.69 705.784 1075.2 703.423 1074.03 701.059C1073.35 699.685 1072.49 698.777 1071.45 698.334C1070.38 697.836 1069.13 697.94 1067.7 698.648C1065.84 699.573 1064.22 701.432 1062.87 704.224C1061.57 706.99 1061.07 710.896 1061.38 715.945L1059.94 716.145C1059.12 710.052 1059.6 705.021 1061.4 701.051C1063.23 696.998 1065.87 694.115 1069.33 692.401C1071.42 691.366 1073.43 690.99 1075.35 691.272C1077.29 691.472 1078.78 692.616 1079.82 694.705C1080.71 696.519 1081.01 698.495 1080.7 700.633C1080.44 702.744 1079.8 704.977 1078.78 707.332C1077.81 709.66 1076.73 712.042 1075.54 714.478C1074.41 716.888 1073.36 719.325 1072.39 721.789C1071.44 724.172 1070.87 726.542 1070.67 728.901C1070.5 731.176 1070.93 733.359 1071.96 735.448C1072.72 736.987 1073.71 737.937 1074.91 738.298C1076.09 738.605 1077.42 738.39 1078.91 737.656Z" fill="white" fill-opacity="0.5"/>
<path d="M1150.61 636.892C1149.91 634.648 1149.23 633.119 1148.56 632.306C1147.92 631.407 1147.09 631.066 1146.06 631.282C1145.05 631.414 1143.65 632.014 1141.86 633.081L1141.26 631.282C1142.49 630.576 1144.02 629.673 1145.86 628.573C1147.71 627.472 1149.51 626.362 1151.27 625.243C1153.29 623.959 1155.16 622.731 1156.88 621.56C1158.61 620.389 1160 619.431 1161.06 618.688L1161.65 620.488C1159.93 621.659 1158.69 622.738 1157.94 623.726C1157.15 624.662 1156.77 625.777 1156.79 627.071C1156.78 628.312 1157.13 630.055 1157.83 632.299L1172 677.367C1172.67 679.559 1173.33 681.105 1173.97 682.003C1174.67 682.869 1175.53 683.194 1176.55 682.977C1177.58 682.761 1178.98 682.161 1180.75 681.178L1181.35 682.978C1180.2 683.565 1178.74 684.419 1176.98 685.539C1175.19 686.606 1173.29 687.782 1171.27 689.066C1169.51 690.186 1167.74 691.347 1165.96 692.552C1164.15 693.704 1162.68 694.711 1161.56 695.571L1160.96 693.772C1162.7 692.516 1163.94 691.437 1164.68 690.533C1165.46 689.597 1165.84 688.483 1165.82 687.189C1165.8 685.895 1165.45 684.152 1164.78 681.96L1150.61 636.892ZM1138 698.999C1138.67 701.191 1139.33 702.736 1139.97 703.635C1140.67 704.501 1141.53 704.825 1142.56 704.609C1143.58 704.393 1144.98 703.793 1146.75 702.81L1147.35 704.609C1146.1 705.263 1144.56 706.166 1142.75 707.318C1140.96 708.386 1139.16 709.496 1137.35 710.649C1135.33 711.933 1133.46 713.16 1131.73 714.331C1130.02 715.418 1128.66 716.359 1127.64 717.154L1127.04 715.354C1128.73 714.131 1129.97 713.052 1130.76 712.116C1131.54 711.18 1131.9 710.081 1131.82 708.821C1131.8 707.527 1131.45 705.784 1130.79 703.592L1116.61 658.524C1115.91 656.28 1115.23 654.751 1114.57 653.937C1113.92 653.039 1113.09 652.698 1112.06 652.914C1111.06 653.046 1109.66 653.645 1107.86 654.713L1107.26 652.914C1108.38 652.274 1109.84 651.42 1111.63 650.353C1113.42 649.285 1115.33 648.109 1117.35 646.825C1119.16 645.673 1120.93 644.511 1122.65 643.34C1124.43 642.135 1125.9 641.129 1127.06 640.32L1127.66 642.119C1125.93 643.29 1124.69 644.37 1123.94 645.358C1123.15 646.294 1122.77 647.409 1122.8 648.702C1122.79 649.944 1123.13 651.687 1123.83 653.931L1138 698.999ZM1137.4 703.197L1135.74 702.294L1151.64 630.457L1153.33 631.565L1137.4 703.197Z" fill="white" fill-opacity="0.5"/>
<path d="M1207.53 664.416L1201.24 669.358L1185.55 631.493C1185.36 630.945 1185.04 630.296 1184.61 629.544C1184.19 628.707 1183.68 628.056 1183.08 627.59C1182.48 627.125 1181.79 627.195 1181.02 627.801C1179.96 628.634 1179.43 629.946 1179.43 631.737C1179.43 633.529 1180.01 636.154 1181.17 639.613L1182.33 643.03L1180.95 644.109L1178.62 637.405C1177.75 634.811 1177.38 632.604 1177.51 630.786C1177.69 628.929 1178.16 627.391 1178.92 626.172C1179.69 624.867 1180.56 623.836 1181.52 623.078C1182.97 621.942 1184.27 621.466 1185.43 621.649C1186.55 621.784 1187.55 622.364 1188.43 623.387C1189.32 624.325 1190.1 625.467 1190.77 626.815C1191.44 628.162 1192.04 629.48 1192.59 630.769L1207.53 664.416ZM1204.61 618.524C1204.16 617.246 1203.62 616.111 1202.99 615.118C1202.42 614.088 1201.76 613.397 1201.02 613.045C1200.28 612.607 1199.46 612.748 1198.54 613.467C1197.19 614.527 1196.36 616.545 1196.04 619.522C1195.74 622.412 1195.91 626.015 1196.57 630.332C1197.24 634.562 1198.36 639.262 1199.92 644.43C1201.44 649.55 1203.36 654.827 1205.67 660.261L1198.98 646.806C1196.65 639.275 1195.13 633.063 1194.41 628.171C1193.69 623.279 1193.72 619.351 1194.52 616.389C1195.36 613.389 1196.89 611.019 1199.11 609.277C1200.66 608.065 1202.05 607.556 1203.29 607.75C1204.55 607.857 1205.68 608.409 1206.7 609.405C1207.71 610.401 1208.59 611.621 1209.33 613.065C1210.13 614.471 1210.83 615.867 1211.45 617.252L1225.48 650.331L1218.97 655.442L1204.61 618.524ZM1222.71 604.325C1222.02 602.451 1221.18 600.886 1220.19 599.632C1219.17 598.329 1218.13 598.094 1217.07 598.927C1215.62 600.063 1214.76 602.1 1214.5 605.038C1214.23 607.977 1214.48 611.677 1215.25 616.138C1215.99 620.551 1217.16 625.52 1218.76 631.043C1220.38 636.479 1222.39 642.313 1224.78 648.542L1219.17 637.972C1217.12 631.477 1215.52 625.868 1214.39 621.145C1213.22 616.373 1212.55 612.296 1212.39 608.913C1212.23 605.53 1212.59 602.712 1213.48 600.46C1214.32 598.159 1215.71 596.251 1217.64 594.737C1219.67 593.147 1221.5 592.646 1223.13 593.236C1224.76 593.826 1226.17 595.023 1227.35 596.825C1228.54 598.541 1229.51 600.428 1230.27 602.485L1239.83 629.128C1240.52 631.002 1241.24 632.268 1242 632.927C1242.71 633.537 1243.55 633.463 1244.51 632.706C1245.43 631.987 1245.92 630.78 1246 629.085C1246.12 627.352 1245.55 624.641 1244.29 620.951L1243.13 617.534L1244.51 616.455L1246.84 623.158C1247.76 625.715 1248.12 627.922 1247.94 629.778C1247.81 631.597 1247.34 633.135 1246.54 634.392C1245.82 635.659 1244.95 636.69 1243.94 637.485C1242.73 638.432 1241.61 638.996 1240.59 639.178C1239.65 639.371 1238.76 639.329 1237.91 639.053C1236.62 638.59 1235.53 637.608 1234.67 636.106C1233.76 634.555 1232.9 632.66 1232.08 630.42L1222.71 604.325Z" fill="white" fill-opacity="0.5"/>
<path d="M1252.33 565.66C1250.89 566.997 1250.04 568.875 1249.78 571.296C1249.52 573.63 1249.75 576.307 1250.47 579.328C1251.19 582.261 1252.25 585.338 1253.65 588.557C1255.09 591.734 1256.8 594.834 1258.78 597.857C1260.75 600.88 1262.84 603.581 1265.06 605.962C1266.94 607.983 1268.63 609.173 1270.14 609.532C1271.69 609.848 1273.09 609.422 1274.35 608.253C1275.79 606.916 1276.63 605.081 1276.89 602.747C1277.15 600.326 1276.95 597.628 1276.27 594.652C1275.56 591.632 1274.48 588.533 1273.03 585.356C1271.59 582.178 1269.9 579.101 1267.96 576.123C1265.99 573.1 1263.88 570.376 1261.62 567.951C1259.7 565.885 1258.01 564.695 1256.54 564.381C1255.04 564.023 1253.63 564.449 1252.33 565.66ZM1256.13 607.981C1254.29 606.005 1252.56 603.598 1250.92 600.761C1249.29 597.924 1247.95 594.859 1246.9 591.566C1245.85 588.273 1245.21 584.973 1244.98 581.667C1244.8 578.319 1245.22 575.123 1246.24 572.078C1247.22 568.989 1248.97 566.276 1251.48 563.937C1254.27 561.347 1257.3 560.156 1260.6 560.362C1263.89 560.482 1267.21 562.338 1270.55 565.932C1272.39 567.908 1274.12 570.315 1275.75 573.151C1277.39 575.988 1278.73 579.053 1279.78 582.346C1280.83 585.639 1281.45 588.96 1281.63 592.308C1281.86 595.615 1281.48 598.812 1280.5 601.901C1279.48 604.946 1277.71 607.637 1275.2 609.976C1272.41 612.565 1269.35 613.778 1266.02 613.613C1262.73 613.407 1259.43 611.529 1256.13 607.981Z" fill="white" fill-opacity="0.5"/>
<path d="M1306.36 572.643C1308.32 570.612 1309.32 568.122 1309.35 565.172C1309.38 562.221 1308.59 559.026 1306.96 555.585L1308.32 554.845C1309.58 557.425 1310.52 560.162 1311.13 563.057C1311.79 565.908 1311.87 568.704 1311.35 571.446C1310.84 574.189 1309.5 576.685 1307.32 578.937C1305.45 580.88 1303.43 582.044 1301.27 582.43C1299.11 582.817 1297.08 582.094 1295.18 580.264C1293.59 578.731 1292.58 576.949 1292.16 574.918C1291.77 572.843 1291.71 570.611 1291.97 568.22C1292.23 565.743 1292.57 563.264 1293.01 560.784C1293.44 558.217 1293.71 555.674 1293.84 553.156C1294.01 550.594 1293.8 548.212 1293.19 546.011C1292.59 543.723 1291.33 541.664 1289.44 539.833C1288.33 538.769 1287.22 538.203 1286.09 538.137C1284.91 538.028 1283.77 538.548 1282.67 539.696C1281.22 541.197 1280.33 543.49 1279.99 546.576C1279.7 549.618 1280.55 553.463 1282.55 558.111L1281.26 558.785C1278.43 553.328 1277.19 548.427 1277.54 544.083C1277.9 539.652 1279.41 536.046 1282.09 533.265C1283.71 531.587 1285.47 530.557 1287.37 530.176C1289.27 529.707 1291.06 530.282 1292.74 531.9C1294.2 533.305 1295.14 535.066 1295.57 537.184C1296.04 539.257 1296.19 541.575 1296.02 544.138C1295.89 546.656 1295.68 549.262 1295.38 551.957C1295.13 554.608 1294.96 557.257 1294.88 559.904C1294.79 562.465 1295.05 564.889 1295.66 567.177C1296.26 569.378 1297.4 571.288 1299.08 572.906C1300.32 574.098 1301.56 574.661 1302.82 574.594C1304.03 574.486 1305.21 573.835 1306.36 572.643Z" fill="white" fill-opacity="0.5"/>
<path d="M1339.66 453.837C1338.25 451.959 1337.09 450.747 1336.19 450.203C1335.29 449.573 1334.38 449.532 1333.49 450.081C1332.59 450.543 1331.47 451.577 1330.14 453.185L1328.97 451.691C1329.89 450.616 1331.03 449.25 1332.4 447.595C1333.76 445.939 1335.09 444.288 1336.37 442.643C1337.84 440.756 1339.19 438.971 1340.42 437.288C1341.66 435.605 1342.64 434.237 1343.39 433.183L1344.56 434.676C1343.32 436.359 1342.52 437.792 1342.14 438.976C1341.72 440.121 1341.73 441.299 1342.19 442.51C1342.59 443.683 1343.51 445.208 1344.92 447.087L1373.4 484.78C1374.77 486.621 1375.9 487.856 1376.81 488.486C1377.76 489.068 1378.68 489.085 1379.57 488.537C1380.46 487.988 1381.58 486.954 1382.92 485.432L1384.09 486.926C1383.2 487.867 1382.12 489.16 1380.84 490.805C1379.51 492.412 1378.11 494.16 1376.64 496.047C1375.36 497.692 1374.08 499.38 1372.81 501.111C1371.49 502.805 1370.44 504.246 1369.67 505.434L1368.51 503.941C1369.73 502.172 1370.53 500.739 1370.92 499.641C1371.35 498.496 1371.33 497.318 1370.88 496.107C1370.42 494.897 1369.51 493.371 1368.14 491.53L1339.66 453.837ZM1348.64 516.571C1350 518.412 1351.14 519.647 1352.05 520.277C1353 520.859 1353.92 520.875 1354.81 520.327C1355.7 519.779 1356.82 518.744 1358.16 517.223L1359.33 518.717C1358.37 519.754 1357.22 521.12 1355.91 522.813C1354.58 524.421 1353.25 526.071 1351.93 527.765C1350.46 529.652 1349.11 531.437 1347.88 533.12C1346.63 534.717 1345.66 536.061 1344.97 537.152L1343.8 535.659C1344.99 533.938 1345.79 532.505 1346.22 531.36C1346.64 530.214 1346.61 529.06 1346.11 527.898C1345.66 526.687 1344.75 525.162 1343.38 523.321L1314.9 485.628C1313.49 483.749 1312.33 482.538 1311.43 481.994C1310.52 481.364 1309.62 481.323 1308.73 481.871C1307.83 482.333 1306.71 483.368 1305.38 484.976L1304.21 483.482C1305.05 482.503 1306.14 481.211 1307.46 479.603C1308.79 477.996 1310.19 476.248 1311.66 474.361C1312.98 472.668 1314.26 470.979 1315.49 469.296C1316.76 467.565 1317.81 466.124 1318.63 464.974L1319.8 466.467C1318.56 468.15 1317.76 469.583 1317.38 470.766C1316.95 471.912 1316.97 473.09 1317.43 474.301C1317.83 475.473 1318.74 476.999 1320.16 478.877L1348.64 516.571ZM1349.48 520.727L1347.61 520.435L1338.47 447.429L1340.43 447.907L1349.48 520.727Z" fill="white" fill-opacity="0.5"/>
<path d="M1402.94 459.913L1398.7 466.697L1371.1 436.397C1370.73 435.949 1370.21 435.444 1369.55 434.885C1368.87 434.241 1368.17 433.801 1367.45 433.567C1366.72 433.332 1366.1 433.631 1365.58 434.463C1364.87 435.606 1364.81 437.02 1365.42 438.705C1366.03 440.389 1367.47 442.662 1369.73 445.524L1371.98 448.344L1371.05 449.826L1366.58 444.313C1364.88 442.166 1363.79 440.215 1363.3 438.459C1362.84 436.652 1362.76 435.046 1363.06 433.642C1363.34 432.153 1363.8 430.889 1364.45 429.849C1365.43 428.289 1366.49 427.4 1367.65 427.179C1368.74 426.927 1369.88 427.132 1371.06 427.796C1372.22 428.376 1373.34 429.186 1374.42 430.227C1375.51 431.268 1376.52 432.302 1377.47 433.33L1402.94 459.913ZM1384.63 417.732C1383.77 416.685 1382.87 415.8 1381.95 415.078C1381.06 414.303 1380.21 413.877 1379.39 413.798C1378.55 413.635 1377.82 414.047 1377.2 415.035C1376.29 416.491 1376.19 418.672 1376.9 421.579C1377.6 424.401 1378.99 427.73 1381.07 431.568C1383.14 435.32 1385.78 439.363 1389 443.695C1392.17 447.995 1395.77 452.308 1399.79 456.634L1388.92 446.25C1384.18 439.953 1380.64 434.626 1378.3 430.269C1375.97 425.911 1374.67 422.204 1374.41 419.149C1374.18 416.041 1374.82 413.291 1376.32 410.9C1377.36 409.236 1378.5 408.285 1379.73 408.045C1380.95 407.721 1382.2 407.855 1383.5 408.447C1384.79 409.04 1386.03 409.889 1387.22 410.995C1388.44 412.049 1389.58 413.123 1390.63 414.216L1415.05 440.574L1410.66 447.592L1384.63 417.732ZM1396.83 398.237C1395.55 396.708 1394.23 395.521 1392.88 394.675C1391.47 393.796 1390.41 393.928 1389.7 395.072C1388.72 396.632 1388.61 398.839 1389.35 401.693C1390.1 404.548 1391.59 407.943 1393.83 411.878C1396.02 415.78 1398.81 420.057 1402.19 424.708C1405.55 429.274 1409.42 434.081 1413.78 439.129L1404.92 431.087C1400.79 425.675 1397.38 420.94 1394.71 416.881C1391.99 412.79 1389.98 409.18 1388.69 406.052C1387.39 402.924 1386.77 400.151 1386.84 397.732C1386.85 395.281 1387.51 393.016 1388.81 390.937C1390.18 388.753 1391.73 387.662 1393.47 387.663C1395.2 387.665 1396.93 388.313 1398.65 389.608C1400.36 390.818 1401.91 392.263 1403.32 393.941L1421.36 415.759C1422.64 417.288 1423.75 418.235 1424.68 418.6C1425.56 418.932 1426.32 418.578 1426.97 417.538C1427.59 416.551 1427.65 415.247 1427.14 413.628C1426.67 411.957 1425.21 409.599 1422.78 406.555L1420.53 403.735L1421.46 402.253L1425.93 407.766C1427.66 409.861 1428.75 411.812 1429.21 413.62C1429.7 415.375 1429.78 416.981 1429.45 418.437C1429.2 419.874 1428.74 421.138 1428.05 422.23C1427.24 423.529 1426.38 424.439 1425.48 424.958C1424.66 425.458 1423.81 425.721 1422.92 425.747C1421.54 425.752 1420.19 425.195 1418.87 424.076C1417.49 422.924 1416.03 421.434 1414.5 419.606L1396.83 398.237Z" fill="white" fill-opacity="0.5"/>
<path d="M1411.81 351.475C1410.92 353.221 1410.76 355.276 1411.34 357.642C1411.89 359.924 1413.01 362.364 1414.71 364.961C1416.39 367.476 1418.43 370.008 1420.84 372.558C1423.28 375.053 1425.95 377.386 1428.83 379.557C1431.72 381.728 1434.6 383.556 1437.5 385.041C1439.95 386.302 1441.95 386.845 1443.48 386.67C1445.05 386.44 1446.23 385.561 1447.01 384.034C1447.91 382.288 1448.08 380.274 1447.53 377.991C1446.95 375.626 1445.84 373.158 1444.19 370.59C1442.49 367.993 1440.42 365.446 1437.98 362.951C1435.54 360.456 1432.91 358.137 1430.08 355.994C1427.19 353.823 1424.28 351.981 1421.33 350.467C1418.82 349.178 1416.82 348.635 1415.34 348.839C1413.8 349.014 1412.63 349.893 1411.81 351.475ZM1429.79 389.977C1427.39 388.744 1424.94 387.072 1422.44 384.96C1419.94 382.848 1417.63 380.423 1415.52 377.684C1413.41 374.946 1411.69 372.06 1410.35 369.028C1409.04 365.942 1408.35 362.794 1408.27 359.583C1408.14 356.345 1408.86 353.198 1410.43 350.143C1412.17 346.761 1414.62 344.607 1417.78 343.681C1420.92 342.673 1424.67 343.29 1429.04 345.531C1431.44 346.764 1433.89 348.437 1436.39 350.549C1438.89 352.661 1441.19 355.086 1443.3 357.825C1445.41 360.563 1447.12 363.476 1448.44 366.562C1449.77 369.594 1450.51 372.729 1450.64 375.967C1450.71 379.178 1449.96 382.31 1448.4 385.365C1446.66 388.748 1444.19 390.929 1441 391.91C1437.84 392.835 1434.1 392.191 1429.79 389.977Z" fill="white" fill-opacity="0.5"/>
<path d="M1465.14 339.442C1466.29 336.865 1466.37 334.184 1465.4 331.399C1464.42 328.615 1462.58 325.883 1459.88 323.204L1460.9 322.046C1462.97 324.04 1464.78 326.293 1466.35 328.803C1467.95 331.258 1468.97 333.861 1469.42 336.614C1469.87 339.367 1469.46 342.172 1468.19 345.03C1467.1 347.495 1465.6 349.279 1463.7 350.38C1461.8 351.481 1459.64 351.495 1457.23 350.423C1455.22 349.525 1453.66 348.194 1452.56 346.431C1451.49 344.612 1450.67 342.535 1450.1 340.199C1449.5 337.783 1448.98 335.335 1448.54 332.856C1448.06 330.297 1447.46 327.812 1446.72 325.401C1446 322.935 1444.99 320.77 1443.67 318.907C1442.32 316.963 1440.44 315.455 1438.03 314.383C1436.63 313.759 1435.39 313.609 1434.3 313.932C1433.16 314.231 1432.27 315.108 1431.62 316.565C1430.77 318.47 1430.72 320.93 1431.46 323.944C1432.22 326.903 1434.33 330.226 1437.79 333.915L1436.81 334.989C1432.29 330.826 1429.45 326.643 1428.3 322.439C1427.12 318.154 1427.31 314.246 1428.89 310.716C1429.83 308.587 1431.14 307.018 1432.79 306.01C1434.42 304.921 1436.3 304.851 1438.43 305.799C1440.28 306.622 1441.76 307.955 1442.89 309.799C1444.04 311.587 1444.97 313.714 1445.69 316.181C1446.43 318.591 1447.12 321.114 1447.76 323.748C1448.42 326.327 1449.17 328.874 1449.99 331.391C1450.79 333.826 1451.86 336.016 1453.21 337.959C1454.53 339.822 1456.26 341.227 1458.39 342.175C1459.96 342.874 1461.32 342.977 1462.48 342.486C1463.58 341.97 1464.47 340.955 1465.14 339.442Z" fill="white" fill-opacity="0.5"/>
<path d="M1456.22 215.334C1454.25 214.057 1452.74 213.318 1451.71 213.117C1450.64 212.839 1449.78 213.111 1449.13 213.933C1448.44 214.678 1447.75 216.034 1447.06 218.001L1445.45 217.002C1445.93 215.677 1446.54 214.002 1447.25 211.977C1447.96 209.951 1448.64 207.945 1449.27 205.959C1450 203.681 1450.66 201.54 1451.23 199.535C1451.81 197.531 1452.27 195.906 1452.6 194.661L1454.21 195.66C1453.64 197.665 1453.37 199.287 1453.43 200.528C1453.42 201.75 1453.84 202.851 1454.69 203.83C1455.48 204.791 1456.86 205.909 1458.83 207.186L1498.55 232.761C1500.47 234.018 1501.96 234.786 1503.03 235.065C1504.12 235.285 1504.99 234.984 1505.64 234.161C1506.29 233.339 1506.98 231.983 1507.72 230.093L1509.33 231.092C1508.82 232.282 1508.25 233.869 1507.61 235.855C1506.91 237.822 1506.2 239.945 1505.47 242.223C1504.84 244.209 1504.22 246.233 1503.62 248.296C1502.97 250.34 1502.48 252.053 1502.17 253.434L1500.56 252.434C1501.1 250.353 1501.36 248.73 1501.35 247.566C1501.35 246.344 1500.93 245.244 1500.08 244.264C1499.24 243.285 1497.86 242.166 1495.94 240.909L1456.22 215.334ZM1486.26 271.135C1488.17 272.393 1489.67 273.161 1490.74 273.44C1491.83 273.66 1492.7 273.358 1493.35 272.536C1494 271.714 1494.69 270.358 1495.42 268.468L1497.03 269.467C1496.49 270.773 1495.89 272.448 1495.23 274.493C1494.54 276.46 1493.86 278.466 1493.21 280.51C1492.48 282.788 1491.82 284.929 1491.24 286.934C1490.63 288.861 1490.18 290.457 1489.9 291.721L1488.29 290.722C1488.81 288.698 1489.07 287.075 1489.08 285.853C1489.08 284.631 1488.65 283.56 1487.79 282.639C1486.95 281.66 1485.56 280.541 1483.65 279.283L1443.93 253.708C1441.95 252.432 1440.45 251.693 1439.42 251.492C1438.35 251.213 1437.49 251.485 1436.84 252.308C1436.15 253.053 1435.46 254.409 1434.76 256.376L1433.15 255.377C1433.6 254.169 1434.18 252.581 1434.87 250.614C1435.56 248.647 1436.28 246.524 1437.01 244.246C1437.66 242.202 1438.28 240.178 1438.86 238.173C1439.45 236.11 1439.94 234.397 1440.31 233.035L1441.92 234.035C1441.34 236.039 1441.08 237.662 1441.13 238.903C1441.13 240.125 1441.55 241.225 1442.39 242.205C1443.18 243.165 1444.56 244.284 1446.54 245.56L1486.26 271.135ZM1488.48 274.746L1486.63 275.117L1452.9 209.728L1454.9 209.501L1488.48 274.746Z" fill="white" fill-opacity="0.5"/>
</svg>
