<svg width="1106" height="383" viewBox="0 0 1106 383" fill="none" xmlns="http://www.w3.org/2000/svg">
<path d="M109.102 381.581C116.742 357.705 94.0313 341.965 80.4212 325.52C61.9502 303.201 32.2898 292.411 13.8712 269.644C-15.1178 233.81 9.96149 195.896 38.8391 168.751C59.0752 149.729 95.1737 126.039 114.764 159.191C125.25 176.937 140.475 198.888 164.235 191.12C192.286 181.95 205.825 158.273 224.566 137.658C256.169 102.895 268.699 91.4471 297.545 54.4205C325.751 18.2162 378.91 -7.39908 425.262 3.55669C443.315 7.82387 462.665 19.7064 474.826 33.4438C492.806 53.7546 512.496 78.9954 516.676 105C520.823 130.805 521.34 127.856 519.725 154.179C517.889 184.103 506.337 215.142 494.108 242.355C476.869 280.718 452.123 315.037 418.183 339.721C414.198 342.619 400.231 353.504 395.721 346.125C389.316 335.644 393.151 315.924 395.629 304.914C403.055 271.907 421.875 238.167 447.328 215.81C474.505 191.937 514.682 182.317 549.984 178.683C572.891 176.325 593.676 177.5 615.676 184.5" stroke="#47B5CA" stroke-linecap="round" stroke-dasharray="7 7"/>
</svg>
