<svg width="364" height="164" viewBox="0 0 364 164" fill="none" xmlns="http://www.w3.org/2000/svg">
<path d="M64.6642 163C69.1638 152.837 55.7888 146.137 47.7734 139.137C36.8953 129.636 19.4275 125.043 8.58023 115.352C-8.49223 100.099 6.27768 83.9605 23.2845 72.4058C35.2021 64.3088 56.4616 54.2247 67.9986 68.3364C74.1741 75.89 83.1409 85.2339 97.1338 81.9275C113.654 78.0239 121.627 67.9457 132.665 59.1703C151.276 44.373 158.655 39.5001 175.644 23.7392C192.255 8.32833 223.562 -2.57519 250.86 2.08829C261.492 3.90468 272.888 8.96267 280.05 14.8102C290.638 23.4557 302.235 34.1999 304.696 45.2691C307.138 56.2532 307.443 54.9981 306.492 66.2029C305.411 78.9403 298.607 92.1527 291.405 103.736C281.253 120.066 266.679 134.674 246.691 145.181C244.344 146.415 236.118 151.048 233.463 147.908C229.69 143.446 231.949 135.052 233.408 130.366C237.782 116.315 248.865 101.954 263.855 92.4369C279.861 82.2753 303.522 78.1801 324.312 76.6333C337.803 75.6295 350.044 76.1298 363 79.1095" stroke="#47B5CA" stroke-linecap="round" stroke-dasharray="7 7"/>
</svg>
