<svg width="519" height="397" viewBox="0 0 519 397" fill="none" xmlns="http://www.w3.org/2000/svg">
<path d="M13.463 395.337C18.0877 377.866 31.0117 367.776 43.7431 355.393C75.3475 324.655 115.199 298.395 153.052 276.15C187.701 255.788 224.78 238.966 264.509 231.481C287.063 227.232 315.987 225.174 337.096 234.917C371.736 250.905 345.69 288.581 322.922 302.242C295.991 318.401 260.309 326.679 229.719 332.415C188.883 340.072 146.015 346.178 104.518 341.22C68.1782 336.877 38.9398 325.314 18.1875 293.759C3.53154 271.474 -0.151447 241.264 2.29582 215.16C11.7873 113.918 119.776 57.0229 205.345 29.3984C255.406 13.237 306.292 5.61001 358.571 2.12475C396.655 -0.414209 434.076 0.865994 470.135 14.473C485.463 20.257 499.883 28.4474 511.046 40.6729C514.863 44.8537 521.863 55.1487 514.052 57.1015" stroke="#4D8C98" stroke-opacity="0.6" stroke-width="2" stroke-linecap="round" stroke-dasharray="7 7"/>
</svg>
