<svg width="70" height="70" viewBox="0 0 70 70" fill="none" xmlns="http://www.w3.org/2000/svg">
<circle cx="35" cy="35" r="30" fill="#1B3543"/>
<path fill-rule="evenodd" clip-rule="evenodd" d="M54.4843 26.6252C54.7652 25.6883 54.4843 25 53.1474 25H48.7263C47.6021 25 47.084 25.5947 46.8029 26.2503C46.8029 26.2503 44.5546 31.7304 41.3697 35.2901C40.3393 36.3204 39.8708 36.6483 39.3088 36.6483C39.0278 36.6483 38.6063 36.3204 38.6063 35.3838V26.6251C38.6063 25.5011 38.2948 25 37.3579 25H30.4105C29.7081 25 29.2856 25.5217 29.2856 26.0162C29.2856 27.0818 30.878 27.3276 31.0421 30.3252V36.8358C31.0421 38.2632 30.7844 38.522 30.2223 38.522C28.7236 38.522 25.0777 33.0174 22.9156 26.7188C22.4918 25.4945 22.0667 25 20.9368 25H16.5158C15.2526 25 15 25.5947 15 26.2503C15 27.4212 16.4989 33.2292 21.9788 40.9106C25.6321 46.1566 30.7794 49 35.4632 49C38.2734 49 38.6211 48.3684 38.6211 47.2806V43.3158C38.6211 42.0526 38.8873 41.8005 39.7772 41.8005C40.4328 41.8005 41.557 42.1284 44.18 44.6576C47.1777 47.6552 47.6718 49 49.3579 49H53.7789C55.0421 49 55.6737 48.3684 55.3094 47.1221C54.9106 45.8799 53.4795 44.0775 51.5804 41.9411C50.5499 40.7233 49.0043 39.4119 48.5358 38.756C47.8803 37.913 48.0676 37.5384 48.5358 36.7889C48.5358 36.7889 53.9223 29.2011 54.4843 26.6252Z" fill="white"/>
</svg>
